<svg xmlns="http://www.w3.org/2000/svg" width="426" height="280.5" viewBox="0 155.5 426 280.5"><path fill="#E82133" d="M150.1 330.313c3.181-.317 5.406-2.864 5.406-5.729v-81.43c0-30.217 38.808-44.85 59.483-9.541 20.995 35.942 33.083 56.938 33.083 56.938v-47.396c0-30.217 38.807-44.85 59.482-9.541 20.992 35.943 33.08 56.938 33.08 56.938v-76.98h46.443v134.873c0 34.67-40.717 40.078-57.258 12.404-9.859-16.224-35.309-58.214-35.309-58.214v45.81c.318 34.67-40.398 40.078-57.256 12.404-9.861-16.224-34.99-58.214-34.99-58.214v41.354c0 21.313-12.405 32.447-31.809 32.447h-44.852c-114.831 0-115.785-162.865-1.59-162.865h25.447v46.125h-27.992c-46.761 0-51.85 70.617 3.181 70.617H150.1z"/><path fill="none" stroke="#FFF" stroke-width="2.638" stroke-miterlimit="2.613" d="M363.857 213.57v132.008c0 8.271-7.951 10.18-12.09 4.455 0 0-54.072-86.838-67.752-109.424-4.135-5.726-12.723-3.816-12.723 4.77v100.199c0 8.271-7.635 10.18-11.77 4.455 0 0-54.396-86.838-68.072-109.424-4.136-5.726-12.725-3.816-12.725 4.77v99.564c0 4.451-3.499 8.27-8.27 8.27h-48.031c-81.749 0-79.204-116.42-1.908-116.42H150.1"/></svg>