<svg id="Layer_1" xmlns="http://www.w3.org/2000/svg" viewBox="0 0 72 47.2"><style>.st0{fill:#8cacda}.st1{fill:#f5f5f5}.st2{fill:#f09147}.st3{fill:#fee159}</style><path class="st0" d="M72 15.7H0V1.2C0 .6.6 0 1.2 0h69.5c.7 0 1.3.6 1.3 1.2v14.5zm-1.2 31.5H1.2C.5 47.2 0 46.6 0 46V31.4h72v14.5c0 .7-.6 1.3-1.2 1.3z"/><path class="st1" d="M0 15.7h72v15.7H0z"/><path class="st2" d="M42.2 23.3h-4.5l.2-.2c.1-.1.2-.2.4-.3.2-.1.4-.1.5-.1.2 0 .4 0 .7-.1.3-.1.5-.3.6-.4.1-.1.2-.2.4-.3.2-.1.4-.1.5-.1.2 0 .4 0 .7-.1V21c-.2.1-.4.1-.5.1-.2 0-.4 0-.7.1-.3.1-.5.3-.6.4-.1.1-.2.2-.4.3-.2.1-.4.1-.5.1-.2 0-.4 0-.7.1-.3.1-.5.3-.6.4-.1.1-.2.2-.4.3l3.5-3.5-.6-.3-3.2 3.1v-.3c0-.2 0-.3.1-.5s.2-.3.3-.4c.1-.1.3-.3.4-.6.2-.3.2-.5.2-.7 0-.2 0-.3.1-.5s.2-.3.3-.4c.1-.1.3-.3.4-.6l-.6-.2c-.1.2-.2.3-.3.4-.1.1-.3.3-.4.6-.1.3-.1.6-.1.7 0 .2 0 .3-.1.5s-.2.3-.3.4c-.1.1-.3.3-.4.6-.1.3-.1.6-.1.7 0 .1 0 .3-.1.5v-5h-.6v4.5l-.2-.2c-.1-.1-.2-.2-.3-.4-.1-.2-.1-.4-.1-.5 0-.2 0-.4-.1-.7-.1-.3-.3-.5-.4-.6-.1-.1-.2-.2-.3-.4-.1-.2-.1-.4-.1-.5 0-.2 0-.4-.1-.7l-.6.2c.1.2.1.4.1.5 0 .2 0 .4.1.7.1.3.3.5.4.6.1.1.2.2.3.4.1.2.1.4.1.5 0 .2 0 .4.1.7.1.3.3.5.4.6.1.1.2.2.3.4L31.8 19l-.4.4 3.5 3.5c-.2-.1-.3-.2-.4-.3-.1-.1-.3-.3-.6-.4-.3-.1-.6-.1-.7-.1-.2 0-.3 0-.5-.1s-.3-.2-.4-.3c-.1-.1-.3-.3-.6-.4-.3-.1-.6-.1-.7-.1-.2 0-.3 0-.5-.1l-.2.6c.3.1.6.1.7.1.2 0 .3 0 .5.1s.3.2.4.3c.1.1.3.3.6.4.3.1.6.1.7.1.2 0 .3 0 .5.1s.3.2.4.3l.2.2h-4.5v.6h5c-.2.1-.4.1-.5.1-.2 0-.4 0-.7.1-.3.1-.5.3-.6.4-.1.1-.2.2-.4.3-.2.1-.4.1-.5.1-.2 0-.4 0-.7.1-.3.1-.5.3-.6.4-.1.1-.2.2-.4.3l.2.6c.3-.1.5-.3.6-.4.1-.1.2-.2.4-.3.2-.1.4-.1.5-.1.2 0 .4 0 .7-.1.3-.1.5-.3.6-.4.1-.1.2-.2.4-.3.2-.1.4-.1.5-.1h.3l-3.2 3.2.4.4 3.5-3.5c-.1.2-.2.3-.3.4-.1.1-.3.3-.4.6s-.1.6-.1.7c0 .2 0 .3-.1.5s-.2.3-.3.4c-.1.1-.3.3-.4.6-.1.3-.1.6-.1.7 0 .2 0 .3-.1.5l.6.2c.1-.3.1-.6.1-.7 0-.2 0-.3.1-.5s.2-.3.3-.4c.1-.1.3-.3.4-.6.1-.3.1-.6.1-.7 0-.2 0-.3.1-.5s.2-.3.3-.4l.2-.2v4.5h.6v-5c.1.2.1.3.1.5s0 .4.1.7c.1.3.3.5.4.6.1.1.2.2.3.4.1.2.1.4.1.5 0 .2 0 .4.1.7.1.3.3.5.4.6.1.1.2.2.3.4l.6-.2c-.1-.3-.3-.5-.4-.6-.1-.1-.2-.2-.3-.4v-.4c0-.2 0-.4-.1-.7-.1-.3-.3-.5-.4-.6-.1-.1-.2-.2-.3-.4-.2-.3-.2-.5-.2-.6V25l3.2 3.2.4-.4-3.2-3.2h.3c.2 0 .3 0 .5.1s.3.2.4.3c.1.1.3.3.6.4.3.1.5.1.7.1.2 0 .3 0 .5.1s.3.2.4.3c.1.1.3.3.6.4l.2-.6c-.2-.1-.3-.2-.4-.3-.1-.1-.3-.3-.6-.4-.3-.1-.5-.1-.7-.1-.2 0-.3 0-.5-.1s-.3-.2-.4-.3c-.1-.1-.3-.3-.6-.4-.3-.1-.5-.1-.7-.1-.2 0-.3 0-.5-.1h5v-.6z"/><path class="st3" d="M36 20.5c1.7 0 3.1 1.4 3.1 3.1s-1.4 3.1-3.1 3.1-3.1-1.4-3.1-3.1c0-1.7 1.4-3.1 3.1-3.1z"/></svg>