<svg id="Layer_1" xmlns="http://www.w3.org/2000/svg" viewBox="0 0 72 47.2"><style>.st0{fill:#72af43}.st1{fill:#f04e58}.st2{fill:#fee159}.st3{fill:#f5f5f5}.st4{fill:#fdbd5b}.st5{fill:#51c5f2}.st6{fill:#825647}</style><path class="st0" d="M0 31.4h72v14.5c0 .7-.6 1.2-1.2 1.2H1.2c-.7 0-1.2-.6-1.2-1.2V31.4z"/><path class="st1" d="M1.2 0h69.5c.7 0 1.3.6 1.3 1.2v14.5H0V1.2C0 .6.6 0 1.2 0z"/><path class="st2" d="M0 15.7h72v15.7H0z"/><path class="st0" d="M34.4 16.5l-.1.1c0 .1-.1.2-.2.3-.2.3-.3.7-.3 1.2 0 .3.1.6.1.8.1.3.2.5.4.8.2.2.5.4.7.5.1.1.3.1.4.1h.9c.2 0 .3-.1.4-.1.3-.1.5-.3.7-.5.2-.2.4-.5.4-.8.1-.3.1-.5.1-.8 0-.5-.2-1-.3-1.2-.1-.1-.2-.2-.2-.3l-.1-.1c-.1-.1 0-.2 0-.2h.2l.1.1c.1.1.2.1.3.3.3.3.6.8.8 1.4.1.3.1.7 0 1.1-.1.4-.3.8-.5 1.2-.3.4-.6.7-1.1.9-.2.1-.4.2-.7.3-.1 0-.3 0-.4.1h-.6c-.1 0-.2 0-.4-.1s-.5-.1-.7-.3c-.4-.2-.8-.5-1.1-.9-.3-.4-.4-.8-.5-1.2-.1-.4-.1-.8 0-1.1.1-.7.5-1.2.8-1.4.1-.1.3-.2.3-.3l.1-.1h.2c.3.1.3.2.3.2z"/><path class="st1" d="M35.7 28.9v2c0 .2-.2.3-.4.2l-.1-.1c-.1-.1-.1-.2-.1-.3V29l.6-.1z"/><path class="st2" d="M34.8 28.6V30c0 .1 0 .2.1.2l.2.2v-1.9l-.3.1z"/><path class="st0" d="M34.4 28.6v.8c0 .1 0 .2.1.3l.2.2v-1.2h-.3v-.1z"/><path class="st1" d="M36.3 28.9v2c0 .2.2.3.4.2l.1-.1c.1-.1.1-.2.1-.3V29l-.6-.1z"/><path class="st2" d="M37.2 28.6V30c0 .1 0 .2-.1.2l-.2.2v-1.9l.3.1z"/><path class="st0" d="M37.6 28.6v.8c0 .1 0 .2-.1.3l-.2.2v-1.2h.3v-.1z"/><path class="st1" d="M37.6 23l3.4-2.5v5.1c0 1.5-1.2 2.7-2.7 2.7-.5 0-1-.1-1.4-.4l-1.8-1.2v-3.8l2.5.1z"/><path class="st2" d="M39.7 21.4V25c0 1.5-1.2 2.7-2.7 2.7-.2 0-.4 0-.7-.1l-1.4-.9v-3.8h2.5l2.3-1.5z"/><path class="st0" d="M38.8 22.1v2.3c0 1.5-1.2 2.7-2.7 2.7-.2 0-.4 0-.7-.1l-.4-.3v-3.8h2.5l1.3-.8z"/><path class="st3" d="M41.2 19.9l1.4-.7-1 1.3H41z"/><path class="st1" d="M39.4 24.5l3.4-2.5v5.1c0 1.5-1.2 2.7-2.7 2.7-.5 0-1-.1-1.4-.4l-1.8-1.2v-3.8l2.5.1z"/><path class="st0" d="M40.7 23.6V26c0 1.5-1.2 2.7-2.7 2.7-.2 0-.4 0-.7-.1l-.4-.3v-3.8h2.5l1.3-.9z"/><path class="st3" d="M43.1 21.5l1.3-.7-1 1.2h-.5z"/><path class="st1" d="M38.5 23.9l3.4-2.5v5.1c0 1.5-1.2 2.7-2.7 2.7-.5 0-1-.1-1.4-.4L36 27.7v-3.8h2.5z"/><path class="st2" d="M40.7 22.3v3.6c0 1.5-1.2 2.7-2.7 2.7-.2 0-.4 0-.7-.1l-1.3-.8v-3.8h2.5l2.2-1.6z"/><path class="st0" d="M39.7 23v2.3c0 1.5-1.2 2.7-2.7 2.7-.2 0-.4 0-.7-.1l-.3-.2v-3.8h2.5l1.2-.9z"/><path class="st3" d="M42.1 20.9l1.4-.7-1 1.2h-.6z"/><path class="st1" d="M34.4 23L31 20.5v5.1c0 1.5 1.2 2.7 2.7 2.7.5 0 1-.1 1.4-.4l1.8-1.2v-3.8l-2.5.1z"/><path class="st2" d="M32.3 21.4V25c0 1.5 1.2 2.7 2.7 2.7.2 0 .4 0 .7-.1l1.4-.9v-3.8h-2.5l-2.3-1.5z"/><path class="st0" d="M33.2 22.1v2.3c0 1.5 1.2 2.7 2.7 2.7.2 0 .4 0 .7-.1l.4-.3v-3.8h-2.5l-1.3-.8z"/><path class="st3" d="M30.8 19.9l-1.4-.7 1 1.3h.6z"/><path class="st1" d="M32.6 24.5L29.1 22v5.1c0 1.5 1.2 2.7 2.7 2.7.5 0 1-.1 1.4-.4l1.8-1.2v-3.8l-2.4.1z"/><path class="st0" d="M31.3 23.6V26c0 1.5 1.2 2.7 2.7 2.7.2 0 .4 0 .7-.1l.4-.3v-3.8h-2.5l-1.3-.9z"/><path class="st3" d="M28.9 21.5l-1.3-.7 1 1.2h.5z"/><path class="st1" d="M33.5 23.9l-3.4-2.5v5.1c0 1.5 1.2 2.7 2.7 2.7.5 0 1-.1 1.4-.4l1.8-1.2v-3.8l-2.5.1z"/><path class="st2" d="M31.3 22.3v3.6c0 1.5 1.2 2.7 2.7 2.7.2 0 .4 0 .7-.1l1.4-.9v-3.8h-2.5l-2.3-1.5z"/><path class="st0" d="M32.3 23v2.3c0 1.5 1.2 2.7 2.7 2.7.2 0 .4 0 .7-.1l.4-.3v-3.8h-2.5l-1.3-.8z"/><path class="st4" d="M31.9 28.6l-.4-.4c-.2-.2-.2-.7 0-.9l6.8-6.4.9.9-6.4 6.8c-.2.2-.6.2-.9 0z"/><path class="st4" d="M31.7 28c.2 0 .3.1.3.3 0 .2-.1.3-.3.3s-.3-.1-.3-.3c0-.1.1-.3.3-.3z"/><path class="st3" d="M38.3 20.9c.1-.1.4 0 .7.2.2.2.3.5.2.7-.1.1-.4 0-.7-.2-.2-.3-.3-.6-.2-.7z"/><path class="st4" d="M40.1 28.6l.4-.4c.2-.2.2-.7 0-.9l-6.8-6.4-.9.9 6.4 6.8c.2.2.6.2.9 0z"/><path class="st4" d="M40.3 28c.2 0 .3.1.3.3 0 .2-.1.3-.3.3-.2 0-.3-.1-.3-.3 0-.1.1-.3.3-.3z"/><path class="st3" d="M33.7 20.9c.1.1 0 .4-.2.7-.2.2-.5.3-.7.2-.1-.1 0-.4.2-.7.3-.3.6-.4.7-.2z"/><path class="st4" d="M36 21.7c1.5 0 2.8 1.5 2.8 3.3s-1.2 3.3-2.8 3.3-2.8-1.5-2.8-3.3c0-1.8 1.3-3.3 2.8-3.3z"/><path class="st1" d="M36 22l.1.7.4-.6-.1.7.5-.5-.2.6.6-.2-.5.5.7-.1-.6.4.7.1-.7.2.6.3-.7-.1.5.5-.6-.2.2.6-.5-.5.1.7-.4-.6-.1.7-.1-.7-.4.6.1-.7-.5.5.2-.6-.6.2.5-.5-.7.1.6-.3-.7-.2.7-.1-.6-.4.7.1-.5-.5.6.2-.2-.6.5.5-.1-.7.4.6z"/><path class="st0" d="M39.5 25s-1 .3-1.7-.3-1.3-.9-1.5-1H36c-.2.1-.5.2-.8.5-.4.4-1.7 1.1-1.9 1.1v1.6l2 1.7 2.3-.1 1.9-3.5z"/><path class="st5" d="M36 21.9c-1.5 0-2.7 1.4-2.7 3.1 0 1.7 1.2 3.1 2.7 3.1 1.5 0 2.7-1.4 2.7-3.1 0-1.7-1.2-3.1-2.7-3.1zm0 7.2c-2 0-3.6-1.8-3.6-4.1 0-2.2 1.6-4.1 3.6-4.1s3.6 1.8 3.6 4.1-1.6 4.1-3.6 4.1z"/><path class="st4" d="M35.5 28.2l.1.2h.2v.1l-.2.1.1.2-.2-.1-.2.1s-.1 0 0 0l.1-.2-.2-.1v-.1h.2l.1-.2c-.1 0 0 0 0 0zm-1-.4l.1.2h.2v.1l-.2.1.1.2-.2-.1-.2.1s-.1 0 0 0l.1-.2-.2-.1V28h.2l.1-.2c-.1 0 0 0 0 0zm-.8-.7l.1.2h.2v.1l-.2.1.1.2-.2-.1-.2.1s-.1 0 0 0l.1-.2-.2-.1v-.1h.2l.1-.2zm-.5-1l.1.2h.2v.1l-.2.1.1.2-.2-.1-.2.2s-.1 0 0 0l.1-.2-.2-.1v-.1h.2l.1-.3c-.1 0 0 0 0 0zm-.3-1.1l.1.2h.2v.1l-.2.1.1.2-.2-.1-.2.1s-.1 0 0 0l.1-.2-.2-.1v-.1h.2l.1-.2zm3.6 3.2l-.1.2h-.2v.1l.2.1-.1.2.2-.1.2.1s.1 0 0 0l-.1-.2.2-.1v-.1h-.2l-.1-.2c.1 0 0 0 0 0zm1-.4l-.1.2h-.2v.1l.2.1-.1.2.2-.1.2.1s.1 0 0 0l-.1-.2.2-.1V28h-.2l-.1-.2c.1 0 0 0 0 0zm.8-.7l-.1.2H38v.1l.2.1-.1.2.2-.1.2.1s.1 0 0 0l-.1-.2.2-.1v-.1h-.2l-.1-.2zm.5-1l-.1.2h-.2v.1l.2.1-.1.2.2-.1.2.1s.1 0 0 0v-.2l.2-.1v-.1H39l-.2-.2c.1 0 0 0 0 0zm.3-1.1l-.1.2h-.2v.1l.2.1-.1.2.2-.1.2.1s.1 0 0 0l-.1-.2.2-.1v-.1h-.2l-.1-.2z"/><path class="st3" d="M34.6 27l.1.5v-.3s.1.2.2.3h.1c0-.1-.1-.2-.1-.3 0-.2.1-.2.1-.3h.1v.6h.1l.1-.5s.1.3.3.5h.1c-.1-.1-.2-.3-.2-.6 0 0 .2-.1.2-.3v-.3c0-.1 0-.1.1-.1h.1s-.1-.2-.2-.2v-.1l-.1.1c-.1 0-.1.1-.1.2v.2c0 .1 0 .1-.1.1H35c-.1 0-.3.1-.3.3s.1.2.1.2h-.2z"/><path class="st4" d="M36.4 26.5c-.3 0-.5.2-.5.2l.3.3v.5h.3V27l.3-.3s-.1-.2-.4-.2z"/><path class="st3" d="M37 25.6h.1v1.9H37z"/><path class="st3" d="M37.1 25.6l-.6.7s-.1-.3.3-.6l-.8.1s.2-.4.8-.4l-.6-.5s.5 0 .8.4c0 0 .1-.4.6-.5l-.3.5s.3-.2.8 0l-.7.2s.4 0 .6.6l-.6-.4s.2.2.1.6l-.4-.7zm-7.2-4.7l-1.4-.7 1 1.2h.6z"/><path class="st6" d="M37 20.1l3.7-1.1-2-.7c-.3-.2-.7-.3-1.1-.3h-.4c-.2 0-.3.1-.3.3v.3h-1.8v-.3c0-.2-.1-.3-.3-.3h-.4c-.4 0-.7.1-1.1.2l-2 .7L35 20c.2.1.3.3.2.4l-.5.9h2.5l-.5-.9c0-.1.1-.3.3-.3z"/><path class="st3" d="M36 18.3c.3 0 .6.3.6.6s-.3.6-.6.6-.6-.3-.6-.6.3-.6.6-.6z"/><path class="st4" d="M36.3 18.9c0 .2-.1.3-.3.3h-1.2l.5-.5c.1-.1.1-.1.2-.1h.5c.2 0 .3.2.3.3z"/></svg>