<svg id="Layer_1" xmlns="http://www.w3.org/2000/svg" viewBox="0 0 72 47.2"><style>.st0{fill:#72af43}.st1{fill:#fee159}.st2{fill:#41489b}.st3{fill:#f5f5f5}</style><path class="st0" d="M70.8 47.2H1.2C.5 47.2 0 46.6 0 46V1.2C0 .6.6 0 1.2 0h69.5c.7 0 1.3.6 1.3 1.2v44.7c0 .7-.6 1.3-1.2 1.3z"/><path class="st1" d="M35.4 6.6L9.2 22.5c-.8.5-.8 1.6 0 2.1l26.2 15.9c.4.2.9.2 1.3 0l26.2-15.9c.8-.5.8-1.6 0-2.1L36.6 6.6c-.4-.2-.8-.2-1.2 0z"/><path class="st2" d="M36 13.7c5.5 0 9.9 4.4 9.9 9.9s-4.4 9.9-9.9 9.9-9.9-4.4-9.9-9.9 4.4-9.9 9.9-9.9z"/><path class="st3" d="M27.5 18.5c-.5.8-.8 1.6-1.1 2.5 5.5-.4 13.6 1.1 18.8 6.2.3-.9.6-1.8.6-2.7-5.3-4.5-12.7-6.1-18.3-6zm8.9 8.5l.3.8h.8c.1 0 .2.1.1.2l-.7.5.3.8c0 .1-.1.2-.2.1l-.7-.5-.7.5c-.1.1-.2 0-.2-.1l.3-.8-.7-.5c-.1-.1 0-.2.1-.2h.8l.3-.8c0-.1.2-.1.2 0zm3.3 2l.1.3h.4s.1.1 0 .1l-.3.2.1.4s0 .1-.1.1l-.3-.2-.3.2s-.1 0-.1-.1l.1-.3-.3-.2v-.1h.4l.3-.4c-.1 0-.1 0 0 0zM35 25.5l.1.3h.4s.1.1 0 .1l-.3.2.1.3s0 .1-.1.1l-.2-.2-.3.2s-.1 0-.1-.1l.1-.3-.3-.2v-.1h.4l.2-.3c-.1-.1 0-.1 0 0zm-6.3-.4l.1.3h.4s.1.1 0 .1l-.3.2.1.3s0 .1-.1.1l-.3-.2-.3.2s-.1 0-.1-.1l.1-.3-.3-.2v-.1h.4l.3-.3c-.1-.1 0-.1 0 0zm5.3 3.8l.1.3h.4s.1.1 0 .1l-.3.2.1.3s0 .1-.1.1l-.3-.2-.3.3s-.1 0-.1-.1l.1-.3-.3-.2v-.1h.4l.3-.4c-.1 0 0 0 0 0zm-2.9-4.1l.1.3h.3s.1 0 0 .1l-.2.2.1.3s0 .1-.1 0l-.3-.2-.2.2h-.1l.1-.3-.2-.2v-.1h.3l.2-.3c-.1 0 0 0 0 0zm8.8-5.7l.1.3h.4s.1.1 0 .1l-.3.2.1.4s0 .1-.1.1l-.3-.2-.3.2s-.1 0-.1-.1l.1-.4-.3-.2v-.1h.4l.3-.3c-.1-.1 0-.1 0 0zm-10.8 4l.1.3h.3s.1 0 0 .1l-.2.2.1.3s0 .1-.1 0l-.2-.2-.3.2h-.1l.1-.3-.2-.2v-.1h.3l.2-.3c-.1 0 0 0 0 0zm1.4 3.9l.1.4h.4c.1 0 .1.1 0 .1l-.4.3.1.4c0 .1 0 .1-.1.1l-.4-.3-.4.3s-.1 0-.1-.1l.1-.4-.4-.3v-.1h.4l.1-.4h.6zm11 2.1l.1.3h.3s.1 0 0 .1l-.2.2.1.3s0 .1-.1 0l-.2-.2-.2.2h-.1l.1-.3-.3-.2v-.1h.3l.2-.3c-.1 0 0 0 0 0zm1-2l.1.3h.4s.1.1 0 .1l-.3.2.1.3s0 .1-.1.1l-.3-.2-.3.2s-.1 0-.1-.1l.1-.3-.3-.2v-.1h.4l.3-.3c-.1-.1-.1-.1 0 0z"/></svg>