<svg id="Layer_1" xmlns="http://www.w3.org/2000/svg" viewBox="0 0 72 47.2"><style>.st0{fill:#8cacda}.st1{fill:#f5f5f5}.st2{fill:#ffc856}.st3{fill:#72af43}.st4{fill:#966447}.st5{fill:#b9b9b9}.st6{fill:#a09f9f}.st7{fill:#fee159}.st8{fill:#68b468}.st9{fill:#f4e08e}.st10{fill:#ecd077}.st11{fill:#fcf0a8}</style><path class="st0" d="M24 47.2H1.2C.5 47.2 0 46.6 0 46V1.2C0 .6.6 0 1.2 0H24v47.2z"/><path class="st1" d="M24 0h24v47.2H24z"/><path class="st0" d="M70.8 47.2H48V0h22.8c.6 0 1.2.6 1.2 1.2v44.7c0 .7-.6 1.3-1.2 1.3z"/><path class="st2" d="M35.7 17.4l-.7.4.6.2z"/><path class="st3" d="M36 30.6c-4 0-7.2-3.2-7.2-7.2 0-2.5 1.2-4.7 3.3-6l.2.3c-2 1.3-3.2 3.4-3.2 5.8 0 3.8 3.1 6.8 6.8 6.8l.1.3z"/><path class="st3" d="M31.9 31c.3.1.7 0 1.1-.2.4-.2.8-.5.9-.7-.3-.1-.7 0-1.1.2-.4.2-.8.5-.9.7zm2-.9c.1-.3 0-.7-.2-1.1-.2-.4-.5-.8-.7-.9-.1.3 0 .7.2 1.1.2.4.5.7.7.9zm-3.4 0c.3.1.7.1 1.1-.1.5-.1.8-.4 1-.6-.3-.1-.7-.1-1.1 0s-.9.5-1 .7z"/><path class="st3" d="M32.6 29.5c.1-.3.1-.7 0-1.1-.1-.5-.4-.8-.6-1-.1.3-.1.7 0 1.1.2.5.4.8.6 1zm-3.5-.6c.2.1.7.2 1.1.2.5-.1.9-.2 1.1-.4-.2-.1-.7-.2-1.1-.2-.5.1-.9.3-1.1.4zm2.3-.2c.1-.2.2-.7.2-1.1-.1-.5-.2-.9-.4-1.1-.1.2-.2.7-.2 1.1 0 .5.2.9.4 1.1zM28 27.3c.2.2.6.3 1.1.4.5 0 .9 0 1.1-.2-.2-.2-.6-.3-1.1-.4-.4 0-.8 0-1.1.2zm2.3.1c.2-.2.3-.6.4-1.1 0-.5 0-.9-.2-1.1-.2.2-.3.6-.4 1.1-.1.5 0 .9.2 1.1zm-2.9-1.9c.2.2.5.4 1 .6s.9.1 1.1 0c-.2-.2-.5-.4-1-.6-.4-.1-.8-.1-1.1 0zm2.2.6c.2-.2.4-.5.6-1s.1-.9 0-1.1c-.2.2-.4.5-.6 1-.1.4-.1.8 0 1.1zm-2.5-2.8c.1.3.4.6.8.8.4.2.8.4 1.1.3-.1-.3-.4-.6-.8-.8-.4-.2-.8-.3-1.1-.3z"/><path class="st3" d="M29 24.5c.3-.1.6-.4.8-.8s.4-.8.3-1.1c-.3.1-.6.4-.8.8s-.3.8-.3 1.1zm-1.6-3.2c0 .3.3.6.6 1 .3.3.7.5 1 .6 0-.3-.3-.6-.6-1-.3-.3-.7-.5-1-.6z"/><path class="st3" d="M29 22.9c.3 0 .6-.3 1-.6.3-.3.5-.7.6-1-.3 0-.6.3-1 .6-.3.3-.5.7-.6 1zm-.6-3.7c-.1.3 0 .7.2 1.1s.5.8.7.9c.1-.3 0-.7-.2-1.1s-.5-.8-.7-.9zm.9 2c.3.1.7 0 1.1-.2.4-.2.8-.5.9-.7-.3-.1-.7 0-1.1.2-.4.2-.7.5-.9.7zm.3-3.6c-.1.2-.2.7-.1 1.1s.3.9.5 1.1c.1-.2.2-.7.1-1.1-.1-.6-.3-.9-.5-1.1zm.4 2.2c.2.1.7.2 1.1.1.5-.1.9-.3 1.1-.5-.2-.1-.7-.2-1.1-.1-.6.1-.9.3-1.1.5zm.8-3.4c-.2.2-.3.6-.3 1.1 0 .5.1.9.3 1.1.2-.2.3-.6.3-1.1 0-.4-.1-.8-.3-1.1zm0 2.3c.2.2.6.3 1.1.3.5 0 .9-.1 1.1-.3-.2-.2-.6-.3-1.1-.3-.5 0-.9.1-1.1.3zm.6-.6c.3 0 .7-.1 1.1-.4.4-.3.7-.6.8-.8-.3 0-.7.1-1.1.4-.4.2-.7.5-.8.8zM36 30.6v-.3c3.8 0 6.8-3.1 6.8-6.8 0-2.3-1.2-4.5-3.2-5.8l.2-.3c2.1 1.3 3.3 3.6 3.3 6 .1 4-3.1 7.2-7.1 7.2z"/><path class="st3" d="M40.1 31c-.3.1-.7 0-1.1-.2-.4-.2-.8-.5-.9-.7.3-.1.7 0 1.1.2.4.2.8.5.9.7zm-2-.9c-.1-.3 0-.7.2-1.1.2-.4.5-.8.7-.9.1.3 0 .7-.2 1.1-.2.4-.5.7-.7.9zm3.4 0c-.3.1-.7.1-1.1-.1-.5-.1-.8-.4-1-.6.3-.1.7-.1 1.1 0s.9.5 1 .7z"/><path class="st3" d="M39.4 29.5c-.1-.3-.1-.7 0-1.1s.4-.8.6-1c.1.3.1.7-.1 1.1-.1.5-.3.8-.5 1zm3.5-.6c-.2.1-.7.2-1.1.2-.5-.1-.9-.2-1.1-.4.2-.1.7-.2 1.1-.2.5.1.9.3 1.1.4zm-2.3-.2c-.1-.2-.2-.7-.2-1.1.1-.5.2-.9.4-1.1.1.2.2.7.2 1.1 0 .5-.2.9-.4 1.1zm3.4-1.4c-.2.2-.6.3-1.1.4s-.9 0-1.1-.2c.2-.2.6-.3 1.1-.4s.8 0 1.1.2zm-2.3.1c-.2-.2-.3-.6-.4-1.1 0-.5 0-.9.2-1.1.2.2.3.6.4 1.1.1.5 0 .9-.2 1.1zm2.9-1.9c-.2.2-.5.4-1 .6s-.9.1-1.1 0c.2-.2.5-.4 1-.6s.8-.1 1.1 0zm-2.2.6c-.2-.2-.4-.5-.6-1-.1-.5-.1-.9 0-1.1.2.2.4.5.6 1 .1.4.1.8 0 1.1zm2.5-2.8c-.1.3-.4.6-.8.8-.4.2-.8.4-1.1.3.1-.3.4-.6.8-.8s.8-.3 1.1-.3z"/><path class="st3" d="M43 24.5c-.3-.1-.6-.4-.8-.8-.2-.4-.4-.8-.3-1.1.3.1.6.4.8.8.2.4.3.8.3 1.1zm1.6-3.2c0 .3-.3.6-.6 1-.3.3-.7.5-1 .6 0-.3.3-.6.6-1 .4-.3.7-.5 1-.6z"/><path class="st3" d="M43 22.9c-.3 0-.6-.3-1-.6s-.5-.7-.6-1c.3 0 .6.3 1 .6s.5.7.6 1zm.6-3.7c.1.3 0 .7-.2 1.1-.2.4-.5.8-.7.9-.1-.3 0-.7.2-1.1.2-.5.5-.8.7-.9z"/><path class="st3" d="M42.7 21.2c-.3.1-.7 0-1.1-.2-.4-.2-.8-.5-.9-.7.3-.1.7 0 1.1.2.4.2.7.5.9.7zm-.3-3.6c.1.2.2.7.1 1.1-.1.5-.3.9-.5 1.1-.1-.2-.2-.7-.1-1.1.1-.6.3-.9.5-1.1zm-.4 2.2c-.2.1-.7.2-1.1.1-.5-.1-.9-.3-1.1-.5.2-.1.7-.2 1.1-.1.6.1.9.3 1.1.5zm-.8-3.4c.2.2.3.6.3 1.1 0 .5-.1.9-.3 1.1-.2-.2-.3-.6-.3-1.1 0-.4.1-.8.3-1.1zm0 2.3c-.2.2-.6.3-1.1.3-.5 0-.9-.1-1.1-.3.2-.2.6-.3 1.1-.3.5 0 .9.1 1.1.3zm-.6-.6c-.3 0-.7-.1-1.1-.4-.4-.3-.7-.6-.8-.8.3 0 .7.1 1.1.4.4.2.7.5.8.8z"/><path class="st4" d="M32.1 29l-1.2 1.2-.7-1.2 1.8-1.8.6.6-.2.5c0 .3-.1.5-.3.7z"/><path class="st5" d="M38.8 19.8l-6.7 6.7c-.2.2-.2.4 0 .6l.3.3 1.2-1.2 4.9-5.5.6-.6-.3-.3z"/><path class="st4" d="M33.7 25.5c-.1.1-.1.2-.1.3v.4l4.9-5.5-4.8 4.8z"/><path class="st6" d="M39.1 20.1l-.3-.3-.3.3.3.3.3.3 3.4-4z"/><path class="st4" d="M40.3 29l1.2 1.2.6-1.2-1.8-1.8-.6.6.2.5c0 .3.2.5.4.7z"/><path class="st5" d="M33.5 19.8l6.7 6.7c.2.2.2.4 0 .6l-.2.4-1.2-1.2-4.9-5.5-.6-.6.2-.4z"/><path class="st4" d="M38.6 25.5c.1.1.1.2.1.3v.4l-4.9-5.5 4.8 4.8z"/><path class="st6" d="M33.2 20.1l.3-.3.3.3-.3.3-.3.3-3.3-4z"/><path class="st5" d="M33.7 28.7l.3.3c1.1-1.2 3.1-3.4 6.1-6.1 0 0-2.6 1.6-6.4 5.8z"/><path class="st7" d="M32.8 30c-.1-.1-.1-.3 0-.4l.7-.7c.1-.1.3-.1.4 0 .1.1.1.3 0 .4l-.7.7c-.1.1-.3.1-.4 0z"/><path class="st2" d="M33.4 28.5l-.2.1c-.2.1-.6.3-.6.6 0 .2 0 .3.1.5 0 0 0-.1.1-.1l.1-.1c-.1-.1-.1-.2-.1-.2 0-.2.3-.4.5-.5l.8.7.2-.2-.9-.8z"/><path class="st5" d="M38.7 29.1l-.3.3c-1.1-1.2-3.1-3.4-6.1-6.1-.1-.1 2.5 1.5 6.4 5.8z"/><path class="st7" d="M39.5 30.3c.1-.1.1-.3 0-.4l-.7-.7c-.1-.1-.3-.1-.4 0-.1.1-.1.3 0 .4l.7.7c.2.1.3.1.4 0z"/><path class="st2" d="M38.9 28.8l.2.1c.2.1.6.3.6.6 0 .2 0 .3-.1.5 0 0 0-.1-.1-.1l-.1-.1c.1-.1.1-.2.1-.2 0-.2-.3-.4-.5-.5l-.8.7-.2-.2.9-.8z"/><path class="st8" d="M36.3 17.8v-.2c0-.3-.2-.5-.5-.5s-.5.2-.5.5c0 .2.1.3.2.4-.2 1.5 1.3 1.6 1.8 1.8.8.3 1.9 1 1.8 2.7 0 1.8-1.1 3.5-1.1 3.5l.9-1.2c-.3 1.4-1.1 3.2-3 5.3 0 0 1.3-1.2 2.3-2.8-.8 1.8-1.6 3.5-1.6 3.5s1.5-2 2.8-5.4c1.5-4.2-1.6-6.7-3.1-7.6z"/><path class="st9" d="M33.6 23.9H35v.7h-1.4z"/><path class="st10" d="M33.6 23.9c.4 0 .7.3.7.7 0 .4-.3.7-.7.7s-.7-.3-.7-.7.3-.7.7-.7zm0-4.4c.4 0 .7.3.7.7s-.3.7-.7.7-.7-.3-.7-.7.3-.7.7-.7z"/><path class="st11" d="M37.7 20.8c.4 0 .7-.3.7-.7s-.3-.7-.7-.7h-4.1c.4 0 .7.3.7.7s-.3.7-.7.7-.7-.3-.7-.7c0 1.1 1 2.5 1.3 3.8 0 0 .1.3.1.7 0 .4-.3.7-.7.7h4.1c.4 0 .7-.3.7-.7 0-1.1-1-2.5-1.3-3.8h.6z"/><path class="st9" d="M34.3 20.1c0 .4-.3.7-.7.7h4.1c.4 0 .7-.3.7-.7h-4.1zm0 4.5c0 .4-.3.7-.7.7h4.1c.4 0 .7-.3.7-.7h-4.1z"/></svg>