<svg id="Layer_1" xmlns="http://www.w3.org/2000/svg" viewBox="0 0 72 47.2"><style>.st0{fill:#72af43}.st1{fill:#f5f5f5}.st2{fill:#f04e58}.st3{fill:#ffd250}.st4{fill:#2fba9c}.st5{fill:#00aadc}.st6{fill:#732d37}.st7{fill:#aad264}.st8{fill:#884150}.st9{fill:#783c46}.st10{fill:#fee159}.st11{fill:#fbb378}.st12{fill:#9c4c5b}</style><path class="st0" d="M24 47.2H1.2C.5 47.2 0 46.6 0 46V1.2C0 .6.6 0 1.2 0H24v47.2z"/><path class="st1" d="M24 0h24v47.2H24z"/><path class="st2" d="M70.8 47.2H48V0h22.8c.6 0 1.2.6 1.2 1.2v44.7c0 .7-.6 1.3-1.2 1.3z"/><path class="st3" d="M38.1 24.7L36 25.8v1h1.1z"/><path class="st4" d="M36 29.5c-.3 0-.5-.2-.5-.5v-2.1c0-.3.2-.5.5-.5s.5.2.5.5V29c0 .3-.2.5-.5.5z"/><path class="st4" d="M36 27.4c-2.1 0-4.1-.8-5.7-2.3-.2-.2-.2-.5 0-.8.2-.2.5-.2.8 0 1.4 1.3 3.2 2 5 2s3.6-.7 5-2c.2-.2.6-.2.8 0 .2.2.2.6 0 .8-1.8 1.5-3.8 2.3-5.9 2.3z"/><path class="st5" d="M36 29.5c-1.4 0-2.7-.4-3.8-1.2l.6-.9c1.9 1.3 4.6 1.3 6.5 0l.6.9c-1.2.8-2.5 1.2-3.9 1.2z"/><path class="st6" d="M35.2 22.3L34 24.1l-.2.6 3-.7z"/><path class="st7" d="M32.7 25.3c-1.4 0-3.1-1.2-3.6-3.8l1.1-.2c.4 2.2 1.7 3 2.5 3 .2 0 .5-.1.5-.3 0-.2 0-.3-.5-.5-.3-.1-.6-.2-.9-.5-1-1.1.3-2.3 1-2.9.2-.1.2-.1.2-.2s-.2-.2-.5-.2c-.7 0-1.2-.4-1.3-1-.2-.6.1-1.3.7-1.6l.5 1c-.1.1-.2.3-.2.4 0 .1 0 .2.3.2.7 0 1.3.4 1.5.9.1.2.2.8-.4 1.4-.7.6-1.1 1.1-.9 1.4.1.1.3.1.4.2.5.2 1.4.5 1.2 1.6 0 .6-.7 1.1-1.6 1.1.1 0 0 0 0 0z"/><path class="st8" d="M37.1 19.3s1.1-2.1-1.1-3.2c0 0 7.5-1.1 6.4 8.6-.7-.6-1.7-1.6-2.1-2.4l-3.2-1.9v-1.1z"/><path class="st6" d="M36 21.5l5.4 3.2-2.1 1.1-3.3-3.2v-1.1z"/><path class="st9" d="M33.9 18.3c.6 0 1.1.5 1.1 1.1-.6.6-.8 1.6-.4 2.4l.2.5c.1.2.2.4.4.5l3 3v-1.5c0-1.8-.4-3.7-1.3-5.3-.5-1.1-1.7-1.8-2.9-1.8h-.2l.1 1.1z"/><path class="st3" d="M33.9 17.2l-1.1 1.1v1.1s1.3-.6 1.7-.9c.3-.1.2-.5.1-.6l-.7-.7z"/><path class="st7" d="M36 31.7c-5 0-9.1-4.1-9.1-9.1H28c0 4.4 3.6 8 8 8s8-3.6 8-8h1.1c0 5-4.1 9.1-9.1 9.1z"/><path class="st10" d="M28 25c.4 0 .7.3.7.7s-.3.7-.7.7-.7-.3-.7-.7c0-.4.3-.7.7-.7zm1.6 2.6c.4 0 .7.3.7.7s-.3.7-.7.7c-.4 0-.7-.3-.7-.7s.3-.7.7-.7zm2.6 1.9c.4 0 .7.3.7.7 0 .4-.3.7-.7.7s-.7-.3-.7-.7c0-.4.3-.7.7-.7zM44 25c.4 0 .7.3.7.7s-.3.7-.7.7-.7-.3-.7-.7c0-.4.3-.7.7-.7zm-1.6 2.6c.4 0 .7.3.7.7s-.3.7-.7.7-.7-.3-.7-.7.3-.7.7-.7zm-2.6 1.9c.4 0 .7.3.7.7 0 .4-.3.7-.7.7s-.7-.3-.7-.7c0-.4.3-.7.7-.7z"/><path class="st11" d="M36.5 30h-1.1c-.6 0-1.1-.5-1.1-1.1 0-.6.5-1.1 1.1-1.1h1.1c.6 0 1.1.5 1.1 1.1 0 .7-.5 1.1-1.1 1.1z"/><path class="st12" d="M40.3 22.3c.4 1 1.1 2 2.1 2.4 1.1-9.6-6.4-8.6-6.4-8.6 5.4 0 4.3 6.2 4.3 6.2z"/></svg>