<svg xmlns="http://www.w3.org/2000/svg" viewBox="0 0 29.928 29.929"><path d="M0 0v29.929h29.928V0H0zm28.078 28.076H1.853V1.852h26.226v26.224zm0 0"/><circle cx="14.964" cy="14.966" r="2.89"/><path d="M19.778 5.25H10.15a4.906 4.906 0 0 0-4.903 4.902v9.629a4.907 4.907 0 0 0 4.903 4.903h9.628a4.908 4.908 0 0 0 4.904-4.903v-9.629a4.907 4.907 0 0 0-4.904-4.902zm-4.814 14.722a5.012 5.012 0 0 1-5.006-5.005 5.013 5.013 0 0 1 5.006-5.006 5.012 5.012 0 0 1 5.007 5.006 5.01 5.01 0 0 1-5.007 5.005zm5.167-8.977c-.652 0-1.185-.53-1.185-1.184a1.185 1.185 0 0 1 2.37 0c0 .654-.533 1.184-1.185 1.184z"/></svg>