<svg xmlns="http://www.w3.org/2000/svg" viewBox="0 0 29.927 29.929"><path d="M5.491 11.719h4.165v12.533H5.491zm2.054-1.709h.028c1.454 0 2.357-.963 2.357-2.168-.027-1.23-.903-2.164-2.33-2.164-1.425 0-2.357.934-2.357 2.164 0 1.205.906 2.168 2.302 2.168zm8.585 14.242v-7c0-.375.026-.748.137-1.017.302-.748.986-1.522 2.138-1.522 1.507 0 2.11 1.15 2.11 2.833v6.705h4.166v-7.186c0-3.85-2.054-5.639-4.798-5.639-2.212 0-3.2 1.217-3.753 2.069v.04h-.028c.007-.014.019-.027.028-.04v-1.776h-4.169c.057 1.175 0 12.532 0 12.532h4.169v.001zm0 0"/><path d="M0 0v29.929h29.927V0H0zm28.073 28.076H1.85V1.852h26.224v26.224zm0 0"/></svg>