<svg xmlns="http://www.w3.org/2000/svg" viewBox="0 0 29.926 29.927"><path d="M5.947 14.964c0 4.98 4.037 9.018 9.016 9.018.478 0 .947-.04 1.409-.108a5.451 5.451 0 0 0 7.499-7.502A9.018 9.018 0 0 0 13.555 6.056a5.45 5.45 0 0 0-8.31 4.637c0 1.054.293 2.029.812 2.865a8.76 8.76 0 0 0-.11 1.406zm11.014 1.612c-.241-.229-.553-.402-.936-.524a15.75 15.75 0 0 0-1.554-.39c-.876-.19-1.606-.412-2.194-.667-.593-.258-1.064-.606-1.412-1.046-.349-.446-.524-.999-.524-1.655 0-.626.181-1.186.552-1.671.366-.487.901-.864 1.596-1.124.694-.258 1.513-.392 2.447-.392.744 0 1.392.091 1.939.261.546.175 1.001.402 1.364.689.364.286.628.587.799.905.166.316.25.631.25.934 0 .281-.106.536-.321.762a1.058 1.058 0 0 1-.803.336c-.288 0-.512-.066-.669-.205-.151-.135-.309-.353-.481-.654-.222-.414-.479-.743-.783-.978-.294-.231-.785-.35-1.465-.35-.627 0-1.128.13-1.508.384-.383.254-.564.55-.567.896.003.22.066.4.192.557.125.156.303.297.534.413.228.115.459.206.692.271.236.066.629.164 1.172.293.684.149 1.301.311 1.859.491.555.182 1.027.396 1.421.656.396.257.704.588.923.986.225.394.333.883.333 1.45 0 .691-.189 1.313-.571 1.861-.383.548-.943.978-1.676 1.286-.734.309-1.601.463-2.601.463-1.203 0-2.196-.21-2.982-.634a3.834 3.834 0 0 1-1.352-1.222c-.35-.506-.525-1.005-.525-1.491 0-.285.109-.532.32-.739a1.16 1.16 0 0 1 .819-.305c.267 0 .496.08.683.241.186.157.344.39.468.695.154.356.319.652.495.889.176.234.423.431.743.584.315.153.737.228 1.263.228.721 0 1.303-.156 1.746-.462.452-.312.668-.69.668-1.146-.001-.364-.116-.654-.354-.876zm0 0"/><path d="M0 0v29.927h29.926V0H0zm28.074 28.074H1.848V1.848h26.226v26.226zm0 0"/></svg>