<svg xmlns="http://www.w3.org/2000/svg" viewBox="0 0 29.928 29.926"><path d="M5.246 21.069a11.285 11.285 0 0 0 6.113 1.793c7.334 0 11.347-6.077 11.347-11.348 0-.174-.005-.346-.013-.516a8.09 8.09 0 0 0 1.99-2.065 7.969 7.969 0 0 1-2.29.629 4.002 4.002 0 0 0 1.754-2.206 7.987 7.987 0 0 1-2.532.967 3.99 3.99 0 0 0-6.796 3.637 11.322 11.322 0 0 1-8.22-4.166 3.981 3.981 0 0 0-.539 2.005c0 1.385.703 2.605 1.773 3.319a3.967 3.967 0 0 1-1.808-.5v.053a3.988 3.988 0 0 0 3.199 3.908 4.001 4.001 0 0 1-1.801.071 3.993 3.993 0 0 0 3.726 2.768 8.007 8.007 0 0 1-5.903 1.651zm0 0"/><path d="M0 0v29.926h29.928V0H0zm28.077 28.075H1.852V1.851h26.225v26.224zm0 0"/></svg>