<svg xmlns="http://www.w3.org/2000/svg" viewBox="0 0 29.928 29.924"><path d="M0 0v29.924h29.928V0H0zm28.079 28.076H1.852V1.852h26.227v26.224zm0 0"/><path d="M15.135 5.253c-5.258 0-9.538 4.246-9.538 9.469 0 1.687.452 3.342 1.306 4.786L5.266 24.34a.254.254 0 0 0 .24.335c.024 0 .05-.006.075-.014l5.039-1.6a9.617 9.617 0 0 0 4.516 1.121c5.262 0 9.542-4.244 9.542-9.461-.001-5.222-4.282-9.468-9.543-9.468zm4.796 12.75c-.236.655-1.279 1.196-1.753 1.235l-.068.007a3.188 3.188 0 0 1-.391.023c-.368 0-1.017-.064-2.388-.61-1.427-.57-2.833-1.788-3.957-3.435-.021-.027-.033-.049-.042-.059-.293-.385-.977-1.408-.977-2.487 0-1.201.572-1.88.911-2.096.321-.202 1.045-.299 1.178-.305l.108-.004c.283 0 .485.173.638.535.065.154.66 1.596.693 1.663a.659.659 0 0 1 .019.621l-.029.064c-.06.124-.115.227-.231.363l-.115.139c-.079.094-.161.196-.239.27-.029.031-.079.082-.086.1 0 0 .002.017.027.058.156.267 1.31 1.854 2.828 2.515.069.027.286.118.301.118.01 0 .035-.022.054-.041.129-.151.561-.651.702-.863.127-.188.284-.279.477-.279.116 0 .226.033.326.07.254.089 1.669.786 1.707.808.186.089.334.156.417.299.126.204.073.769-.11 1.291z"/></svg>