<svg xmlns="http://www.w3.org/2000/svg" width="2500" height="673.5" viewBox="0 1826.5 2500 673.5"><path d="M838.273 1980.069h-65.727L662.76 2261.347 552.904 1980.07h-68.942v360.182h54.641v-272.753l102.326 272.753h43.557s92.855-247.133 102.42-272.636v272.636h54.606V1980.07h-3.239zm270.403 317.257a31.186 31.186 0 0 1-11.646 2.396c-4.782 0-14.733 0-14.733-24.414V2161.37c0-65.317-55.612-79.045-102.268-79.045-58.149 0-90.493 27.981-96.175 83.149l-.339 3.355 48.783 3.135.164-3.264c1.497-31.746 16.874-47.181 47.042-47.181 39.453 0 54.127 12.651 54.127 46.679v18.335c-91.85 5.18-161.774 15.575-161.774 88.867 0 39.803 36.003 71 81.934 71 34.26 0 62.991-12.242 85.897-35.698 6.747 21.211 19.937 30.904 43.919 30.904 10.396 0 19.516-1.099 27.116-3.262l2.362-.666v-42.096l-4.409 1.744zm-75.034-76.273v24.555c0 36.705-26.52 61.389-65.973 61.389-10.301 0-43.931-2.467-43.931-34.214 0-33.759 41.757-41.979 109.904-51.73zm235.92-136.027c-40.867 0-65.119 11.985-84.529 40.306v-37.066h-48.574v252.149h48.574V2199.35c0-25.97 17.504-62.511 56.407-62.511l31.314 1.146.07-3.355v-49.603h-3.262v-.001zm76.251 255.401h-48.644v-359.563h48.644v207.506c9.962-10.781 91.943-99.204 91.943-99.204h59.634s-89.02 96.807-92.492 100.607l112.71 150.665h-61.05l-85.044-115.586-25.689 27.537-.012 88.038z"/><path d="M1742.418 2213.533c0-80.939-45.217-131.208-118.029-131.208-77.678 0-120.474 47.497-120.474 133.781 0 39.99 13.423 75.187 37.815 99.075 21.538 21.105 50.339 31.887 83.313 31.22 58.22 0 99.1-30.261 115.131-85.184l1.052-3.671-48.351-5.987-.725 2.759c-8.98 35.442-30.484 52.666-65.681 52.666-41.954 0-69.2-31.514-70.404-80.46h186.364v-12.991h-.011zm-52.887-26.286h-133.22c3.356-32.296 24.099-65.727 63.563-65.727 38.272.001 63.214 24.169 69.657 65.727zm186.75 153.822c-15.026 3.567-28.87 5.25-42.294 5.25-46.937 0-46.937-23.911-46.937-51.612v-163.891h-40.785v-42.458h40.785v-106.079h48.444v106.079h45.884v42.458h-45.884v152.536c0 13.389.62 20.347 13.728 20.347 7.905 0 15.67-1.509 25.211-4.935l4.339-1.556v43.253l-2.491.608zm254.805-127.536c0-80.939-45.147-131.208-117.773-131.208-77.678 0-120.38 47.497-120.38 133.781 0 40.036 13.389 75.256 37.768 99.122 21.492 21.059 50.27 31.841 83.243 31.173 57.437 0 99.438-31.056 115.178-85.207l1.075-3.647-48.503-5.987-.689 2.759c-8.863 35.442-30.332 52.666-65.634 52.666-41.954 0-69.199-31.514-70.393-80.46h186.108v-12.992zm-52.257-26.286H1945.2c3.474-32.296 24.205-65.727 63.447-65.727 51.356.001 65.996 39.582 70.182 65.727zm218.193-102.221c-40.88 0-65.178 11.962-84.53 40.201v-36.951h-48.783v252.15h48.783v-141.065c0-25.971 17.399-62.511 56.162-62.511l31.489 1.146.094-3.355v-49.604h-3.216l.001-.011z"/><path fill="#CA3132" d="M254.169 2190.65c-9.215-22.171-6.292-45.627 18.768-54.818 27.045-9.845 41.511 5.684 50.187 29.666l-68.955 25.152zm98.666 36.844c3.847 22.697-5.063 35.794-26.754 43.756-28.987 10.595-45.638-5.227-53.847-32.448l165.013-59.974-4.725-13.271c-29.478-80.846-99.029-115.633-181.079-85.78-35.208 12.815-68.568 38.552-84.061 73.702-14.593 32.108-14.465 73.011-2.303 106.43 12.861 35.173 39.112 63.833 74.25 77.373 36.985 14.886 74.976 9.846 111.201-3.496 58.396-21.129 101.461-67.983 94.621-133.22l-92.316 26.928z"/><path d="M2255.933 2288.019h-17.493v-6.771h42.914v6.771h-17.656v51.999h-7.765v-51.999zm31.29-6.771h10.303l18.065 47.755 17.972-47.755h10.256v58.77h-7.765v-47.299h-.164l-17.201 47.299h-6.302l-17.188-47.299h-.211v47.299h-7.765v-58.77z"/></svg>