<svg id="Layer_1" xmlns="http://www.w3.org/2000/svg" viewBox="0 0 259.6 523.1"><style>.st0{fill:none}.st1,.st2{fill:#fff}.st2{stroke:#000;stroke-miterlimit:10}</style><path class="st0" d="M257.5 5.1c-.2-.4-.4-.7-.6-1l.6 1zm-.8-1.3z"/><path class="st1" d="M2.8 520.7zM259.1 8.3v-.6zm-2.4-4.5c-1.2-1.4-2.9-2.3-4.8-2.3H7.7c-3.4 0-6.2 2.8-6.2 6.2v507.6c0 3.4 2.8 6.2 6.2 6.2h244.2c3.4 0 6.2-2.8 6.2-6.2V7.7c0-1-.2-1.9-.6-2.7l-.6-1-.2-.2zM129.8 506.6c-8.8 0-16-7.2-16-16s7.2-16 16-16 16 7.2 16 16c0 8.9-7.2 16-16 16z"/><path class="st2" d="M258.1 516.6l-1.6 4.3-2.4.7H5.4l-2.6-1c1.3 1.2 3 2 4.9 2h244.2c4 0 7.2-3.2 7.2-7.2V8.3l-1 508.3zM1.5 515.4V4.7l3.3-3.2h4.4L254.6 1l2.1 2.7.2.2c.2.3.4.7.6 1l1.6 2.7c0-4-3.2-7.2-7.2-7.2H7.7C3.7.4.5 3.6.5 7.6v507.6c0 2.1.9 4 2.3 5.3l-1.3-2.3v-2.8z"/><path class="st2" d="M254.1 521.6l2.4-.7 1.6-4.3 1-508.3v-.6L257.5 5c.4.8.6 1.7.6 2.7v507.6c0 3.4-2.8 6.2-6.2 6.2H7.7c-3.4 0-6.2-2.8-6.2-6.2v2.9l1.3 2.3 2.6 1 248.7.1zm2.6-517.8L254.6 1 9.1 1.5h242.8c1.9 0 3.7.9 4.8 2.3zM7.7 1.5h-3L1.5 4.7v3c0-3.4 2.8-6.2 6.2-6.2zM256.9 4l-.2-.2.2.2z"/><path d="M129.8 474.7c-8.8 0-16 7.2-16 16s7.2 16 16 16 16-7.2 16-16-7.2-16-16-16zm0 30.9c-8.2 0-15-6.7-15-15s6.7-15 15-15c8.2 0 15 6.7 15 15s-6.7 15-15 15zM1 459.6h257.6v1H1z"/><path d="M129.8 506.6c-8.8 0-16-7.2-16-16s7.2-16 16-16 16 7.2 16 16c0 8.9-7.2 16-16 16zm0-30.9c-8.2 0-15 6.7-15 15 0 8.2 6.7 15 15 15 8.2 0 15-6.7 15-15s-6.7-15-15-15zM114.7 19.8h30.2v1h-30.2z"/></svg>