<svg xmlns="http://www.w3.org/2000/svg" viewBox="0 0 88.496 35.368" width="88.496" height="35.368"><path d="M26.453 6.265c-1.638-.618-3.478-.786-5.516-.504-2.038.286-3.704 1.202-4.992 2.751-.792.924-1.38 2.089-1.745 3.481a15.73 15.73 0 0 0-.565 4.18c0 1.703.222 3.341.669 4.917.448 1.577 1.194 2.828 2.244 3.754.989.926 2.315 1.588 3.983 1.971a9.798 9.798 0 0 0 4.954-.113c1.836-.415 3.351-1.475 4.547-3.171.545-.832.992-1.837 1.341-3.026.345-1.185.518-2.602.518-4.253 0-2.27-.42-4.258-1.265-5.962-.898-1.907-2.283-3.251-4.173-4.025m-.597 14.552c-.598.925-1.278 1.51-2.051 1.744-.77.23-1.527.204-2.271-.076-.743-.284-1.266-.636-1.565-1.045-.745-.935-1.169-2.571-1.27-4.915-.098-2.347.374-4.12 1.417-5.306.344-.36.896-.656 1.637-.89a3.504 3.504 0 0 1 2.237.04c.743.26 1.403.851 1.974 1.779.576.933.855 2.322.855 4.178-.051 2.067-.366 3.564-.963 4.491M48.624 7.659c-2.038-1.345-4.25-2.012-6.633-2.012-3.133 0-5.401.995-6.818 2.983-1.413 1.982-2.125 4.575-2.125 7.773 0 2.738.536 4.943 1.61 6.621 1.062 1.678 2.343 2.828 3.829 3.448 1.49.616 2.998.743 4.51.382 1.517-.36 2.721-1.265 3.616-2.706v1.312c-.098 1.648-.482 2.888-1.157 3.717-.673.82-1.415 1.329-2.231 1.508-.823.184-1.64.079-2.465-.31-.818-.384-1.423-.94-1.823-1.665H33.5c1.089 4.437 4.146 6.657 9.09 6.657 5.007 0 9.088-3.15 9.088-9.367V15.088c.001-3.609-1.018-6.085-3.054-7.429m-2.16 10.722c-.201 1.213-.519 2.1-.969 2.667-.947 1.344-2.411 1.822-4.401 1.436-1.986-.386-2.976-2.363-2.976-5.925 0-1.649.297-3.122.892-4.412.598-1.288 1.739-1.931 3.43-1.931 1.24 0 2.185.465 2.832 1.391.644.927 1.055 1.987 1.227 3.171.175 1.187.16 2.389-.035 3.603M67.518 7.115c-1.388-.974-3.476-1.468-6.257-1.468-2.487 0-4.396.595-5.738 1.783-1.195 1.029-1.885 2.348-2.085 3.943h4.99c.25-.564.646-.952 1.191-1.157.546-.205 1.167-.314 1.872-.314.64 0 1.349.12 2.114.351.772.233 1.155.735 1.155 1.51 0 1.029-1.094 1.704-3.269 2.013-.453.05-.854.113-1.195.195a4.19 4.19 0 0 1-.896.115c-1.891.31-3.443.93-4.655 1.855-1.222.931-1.827 2.478-1.827 4.645 0 2.323.667 3.984 2.01 4.99 1.342 1.006 2.908 1.512 4.692 1.512.894 0 1.927-.065 3.093-.197a8.93 8.93 0 0 0 3.316-1.039c.993-.523 1.85-1.36 2.576-2.521.72-1.161 1.077-2.775 1.077-4.836v-7.044c-.002-1.855-.725-3.301-2.164-4.336m-2.677 11.15c0 1.443-.4 2.576-1.193 3.401-.796.828-1.891 1.242-3.282 1.242-.846 0-1.494-.21-1.939-.622-.445-.465-.669-1.079-.669-1.854 0-.57.174-1.137.528-1.709.392-.407 1.035-.737 1.933-1l1.713-.392c1.241-.307 2.208-.646 2.909-1.008v1.942zM85.745 7.43a10.915 10.915 0 0 0-6.039-1.783 11.241 11.241 0 0 0-5.85 1.933c-1.765 1.194-2.645 3.533-2.645 7.046v12.076h5.213V13.545c0-1.239.347-2.142 1.043-2.715a3.681 3.681 0 0 1 2.384-.848c.898 0 1.704.281 2.428.848.717.573 1.079 1.476 1.079 2.715v10.519c0 .78.236 1.409.712 1.898.468.494 1.079.74 1.816.74h2.609V14.627c.001-3.613-.916-6.01-2.75-7.197M8.808 22.058c-2.702 0-3.509-1.882-3.509-3.562l-.003.017V.003c0-.007-5.295 0-5.295 0v17.469c0 9.18 6.379 9.564 8.95 9.587 4.264.04 4.504-.769 4.264-4.978l-4.407-.023z" fill="#030204"/></svg>