<svg xmlns="http://www.w3.org/2000/svg" width="369.334" height="91.667" viewBox="0 0 369.334 91.667"><path d="M2.427 85.741V3.611h17.5L46.2 53.478l-.327-49.867h15.851v82.13h-14.92L17.897 30.215l.326 55.526H2.427zM82.19 37.402c0-8.412.55-14.543 1.645-18.406 1.1-3.857 2.977-7.156 5.65-9.9 2.449-2.49 5.413-4.381 8.886-5.682 3.478-1.295 7.371-1.943 11.688-1.943 4.313 0 8.225.648 11.742 1.943 3.509 1.301 6.49 3.191 8.936 5.682 2.673 2.744 4.559 6.043 5.649 9.9 1.1 3.863 1.649 9.994 1.649 18.406V51.94c0 8.412-.55 14.553-1.649 18.41-1.09 3.857-2.977 7.152-5.649 9.9-2.445 2.486-5.427 4.381-8.936 5.674-3.518 1.305-7.429 1.953-11.742 1.953-4.317 0-8.211-.648-11.688-1.953-3.473-1.293-6.437-3.188-8.886-5.674-2.673-2.748-4.55-6.043-5.65-9.9-1.095-3.857-1.645-9.998-1.645-18.41V37.402zm37.301 17.56V34.279c0-7.063-.675-11.652-2.029-13.771s-3.817-3.184-7.402-3.184c-3.584 0-6.057 1.064-7.406 3.184-1.354 2.119-2.034 6.709-2.034 13.771v20.683c0 7.057.679 11.648 2.034 13.768 1.35 2.117 3.822 3.182 7.406 3.182 3.585 0 6.048-1.064 7.402-3.182 1.354-2.12 2.029-6.711 2.029-13.768zm37.086-51.351h23.698c6.662 0 11.623.322 14.898.957 3.277.643 6.021 1.707 8.256 3.213 3.361 2.268 5.959 5.508 7.791 9.705 1.824 4.205 2.744 9.055 2.744 14.545v25.175c0 5.523-.92 10.393-2.744 14.594-1.832 4.205-4.43 7.424-7.791 9.654-2.307 1.537-5.176 2.633-8.613 3.295-3.441.66-8.287.992-14.541.992h-23.698V3.611zm18.219 66.271h4.224c5.924 0 10.155-1.279 12.698-3.844 2.543-2.553 3.809-6.816 3.809-12.775v-17.29c0-5.959-1.256-10.195-3.781-12.721-2.525-2.521-6.767-3.785-12.726-3.785h-4.224v50.415zm77.073-66.271v51.351c0 6.686.814 11.188 2.445 13.49 1.627 2.307 4.541 3.459 8.748 3.459 4.24 0 7.174-1.145 8.805-3.424 1.627-2.285 2.441-6.803 2.441-13.525V3.611h18.213v55.517c0 9.689-2.412 16.891-7.24 21.588-4.828 4.703-12.238 7.055-22.219 7.055-9.91 0-17.289-2.369-22.139-7.107-4.846-4.738-7.264-11.916-7.264-21.535V3.611h18.21zm56.511 67.638l14.152-9.977c2.453 4.023 4.926 6.91 7.434 8.662 2.506 1.754 5.35 2.639 8.531 2.639 3.076 0 5.557-.805 7.461-2.414s2.852-3.674 2.852-6.205c0-2.27-.738-4.254-2.221-5.949-1.48-1.703-3.777-3.213-6.885-4.527a279.102 279.102 0 0 0-4.666-1.859c-7.68-3.111-12.887-5.749-15.631-7.913-3-2.332-5.27-5.068-6.803-8.193-1.537-3.133-2.303-6.539-2.303-10.23 0-7.277 2.463-13.123 7.402-17.531 4.936-4.398 11.488-6.605 19.641-6.605 5.852 0 11.045 1.252 15.582 3.754 4.531 2.504 8.301 6.191 11.299 11.055l-13.057 9.328c-2.123-3-4.398-5.221-6.834-6.695-2.428-1.457-5.09-2.191-7.979-2.191-2.744 0-4.891.635-6.445 1.914-1.551 1.287-2.328 3.039-2.328 5.273 0 2.084.76 3.934 2.275 5.543 1.514 1.609 3.938 3.139 7.268 4.604a421.36 421.36 0 0 0 5.926 2.469c7.277 2.963 12.158 5.426 14.648 7.41a21.919 21.919 0 0 1 6.445 8.226c1.479 3.258 2.221 6.838 2.221 10.754 0 7.537-2.609 13.629-7.816 18.295-5.217 4.662-12.043 6.996-20.49 6.996-6.441 0-12.135-1.387-17.092-4.176-4.952-2.783-9.149-6.932-12.587-12.457z"/></svg>