<svg xmlns="http://www.w3.org/2000/svg" viewBox="0 0 408.7 253.6"><path d="M55.4 152.7H36l-14.7-33h-.2l-5.2 33H0l12.9-81.9h21.6c16.2 0 26.3 7.2 23.5 24.6-1.6 10.4-9 20.8-20.3 22.7l17.7 34.6zm-32.5-44.2H25c8.8 0 15.4-2.6 17-12.6 1.6-10.1-4.6-12.1-13-12.1h-2.2l-3.9 24.7zm64.4-23.8l-2.8 18h25.4l-2.2 13.9H82.3l-3.6 22.1h26.4l-2.2 13.9H60.6l12.9-81.9h42.3l-2.2 13.9-26.3.1zm45.7 50.7l-9.4 17.3h-16.8l45.3-84h12.4l17.7 84h-17l-3.6-17.3H133zm20.6-42.8h-.2l-13.8 29.8H159l-5.4-29.8zm51.5 46.2h22.6l-2.2 13.9H187l12.9-81.9h16l-10.8 68zM23.2 228.6l37.3-66.2 16.2 66.2 31.5-61.9h10l-45.4 86.9-16.2-66.5-37.3 66.5-18-86.9h10l11.9 61.9zm185.6-20.5c-3.8 23.8-26.3 42.6-49.9 42.6-23.6 0-40.1-18.9-36.3-42.6 3.7-23.7 26.2-42.9 49.8-42.9s40.1 19.2 36.4 42.9zm-76.9-.1c-3 18.6 9.6 34.2 28.4 34.2 18.7 0 36.4-15.6 39.4-34.2 3-18.7-9.5-34.2-28.5-34.2-19.1 0-36.4 15.5-39.3 34.2zm97.5 41.3h-9.2l13-82.7h11.9c15.7 0 29.6 4.2 26.6 22.8-2 12.7-11.4 21.7-24.2 22.8l20.4 37.1h-11.3L237.3 213H235l-5.6 36.3zm7-44.4h2.9c10.4 0 21.3-2 23.3-14.8 2.1-13.6-7.7-14.9-18.7-14.9h-2.7l-4.8 29.7zm59.2 35.9h22.8l-1.3 8.5h-32l13-82.7h9.2l-11.7 74.2zm49.1-74.1h15.6c12.4 0 22.3 1.6 30.7 10 8.1 8.1 10.6 19.2 8.8 31.5-2 12.1-8 22.7-18.4 30.8-11.3 8.8-21.4 10.4-34.3 10.4h-15.3l12.9-82.7zm4.2 74.1c10.1 0 18.7-1.4 27.5-8.6 7.8-6.4 12.6-15 14.1-24.2 1.4-9.4-.8-18.5-6.8-24.8-6.6-6.7-14.7-8-24.4-8h-6.7l-10.4 65.6h6.7zm48.4-148.1l5.3-52.5-52.7-22.5-17.6 9.2c-.2 2.5-.2 4.3-.6 6.6l12.2-6.4-3.1 55.4.4 2.9-48.6 9.6 3.1 4.3L342 91l2.6 55.8 5.6-.8-2.7-56 .5-.1 43.6 3.9.1-.9 10.3 65.7-52-13.7-58 9.6-.5-.1 7.7-52.6v-.3l-2.8-14.7-6.4-7.4 2.5 15.2-1.3.2-36.7-5.7.2-2.1L241 37.3l32.2 12.4s-2.4-6.3-2.7-7l-36.6-14 15.2 58.6-.1 1.2-.5 5.6-13.5 59.2 57.1 6.8 57.9-9.5 58.6 15-11.3-72.9zm-49.6-8.5l-1 .2-.3-2.1 3.3-58.2.6-.3 46.2 20.4-4.5 44-44.3-4zm-61.8 69.4l-44.9-5 13-53.8 37.4 5.8 1.9-.4.3 1.9-7.7 51.5z"/><path d="M296.2.2c-16.4 2.2-27.1 18.5-23.6 34.6 3.5 16.4 20.5 30.7 28.8 49 .7 1.6.6 1.7 1.2 0C310.3 63 328.8 48.4 328 27c-.6-16.3-15.1-28.9-31.8-26.8zm4.1 38.3c-5.7.2-10.6-4.3-10.8-10-.2-5.7 4.3-10.6 10-10.8 5.7-.2 10.6 4.3 10.8 10 .3 5.7-4.2 10.6-10 10.8z"/></svg>