<svg xmlns="http://www.w3.org/2000/svg" width="726" height="280" viewBox="0 0 726 280"><path d="M415.543 244.572l-50.904-52.789c12.941-13.029 20.947-30.965 20.916-50.725-.063-39.617-32.352-71.788-71.953-71.726-39.617.062-71.785 32.334-71.723 71.951.062 39.607 32.331 71.787 71.948 71.727 17.389-.027 33.33-6.283 45.758-16.605l51.027 52.916c.67.699 1.57 1.031 2.473 1.029a3.45 3.45 0 0 0 2.369-.949c1.351-1.309 1.398-3.483.089-4.829zm-101.727-38.41c-35.84.055-65.035-29.063-65.09-64.889-.056-35.845 29.047-65.035 64.887-65.09 35.832-.056 65.037 29.042 65.094 64.887.055 35.826-29.059 65.035-64.891 65.092z"/><path d="M413.086 251.35h-.01c-1.229 0-2.36-.475-3.187-1.338l-50.385-52.249c-12.924 10.458-29.106 16.221-45.677 16.247h-.113c-40.1 0-72.774-32.624-72.836-72.725-.03-19.428 7.525-37.724 21.274-51.517 13.75-13.793 32.021-21.406 51.447-21.436h.115c40.101 0 72.776 32.624 72.84 72.724.03 19.042-7.25 37.019-20.521 50.732l50.229 52.089a4.35 4.35 0 0 1 1.233 3.122 4.408 4.408 0 0 1-1.348 3.119 4.442 4.442 0 0 1-3.061 1.232zm-53.427-56.308l51.672 53.584a2.382 2.382 0 0 0 1.745.724v1l.006-1a2.448 2.448 0 0 0 1.684-.675 2.41 2.41 0 0 0 .73-1.705 2.368 2.368 0 0 0-.67-1.7l-51.587-53.497.689-.694c13.331-13.421 20.655-31.184 20.626-50.018-.062-39-31.84-70.728-70.84-70.728h-.111c-18.894.029-36.663 7.434-50.035 20.848-13.372 13.415-20.72 31.208-20.69 50.101.061 39 31.837 70.729 70.836 70.729h.109c16.415-.025 32.438-5.841 45.121-16.375l.715-.594zm-45.943 12.12c-36.331 0-65.933-29.557-65.99-65.887-.057-36.387 29.5-66.036 65.885-66.092h.104c36.33 0 65.934 29.556 65.991 65.885.056 36.387-29.502 66.036-65.889 66.094h-.101zm0-129.979h-.101c-35.284.055-63.944 28.805-63.889 64.088.055 35.229 28.76 63.891 63.99 63.891 35.383-.056 64.045-28.807 63.991-64.09-.056-35.229-28.762-63.889-63.991-63.889zm124.706 90.831h-5.693v-4.625h-.141c-2.918 3.699-6.832 5.549-11.527 5.549-9.818 0-16.01-8.324-16.01-17.574 0-9.533 6.049-17.717 16.08-17.717 4.555 0 8.682 2.135 11.457 5.693h.141v-4.768h5.693v33.442zm-27.537-17.076c0 6.545 3.844 12.736 10.959 12.736 7.328 0 11.17-5.906 11.17-12.666 0-6.688-4.197-12.096-11.242-12.096-6.618 0-10.887 5.764-10.887 12.026zm43.619 17.076h-5.691v-58.701h5.691v58.701zm16.152 0h-5.691v-58.701h5.691v58.701zm32.52-53.649h10.104c8.039 0 14.586 1.066 20.918 6.475 6.119 5.266 8.895 12.451 8.895 20.42 0 7.826-2.846 14.729-8.752 19.994-6.404 5.691-12.807 6.76-21.203 6.76h-9.961v-53.649zm10.316 48.098c6.547 0 12.025-.924 16.934-5.549 4.412-4.127 6.689-9.748 6.689-15.725 0-6.119-2.348-12.025-6.973-16.08-4.91-4.342-10.318-5.195-16.65-5.195h-4.34v42.549h4.34zm68.453 5.551h-5.693v-4.625h-.141c-2.918 3.699-6.832 5.549-11.527 5.549-9.818 0-16.01-8.324-16.01-17.574 0-9.533 6.049-17.717 16.08-17.717 4.555 0 8.682 2.135 11.457 5.693h.141v-4.768h5.693v33.442zm-27.537-17.076c0 6.545 3.844 12.736 10.959 12.736 7.328 0 11.17-5.906 11.17-12.666 0-6.688-4.197-12.096-11.242-12.096-6.617 0-10.887 5.764-10.887 12.026zm44.047 17.076h-5.691v-28.176h-3.486v-5.266h3.486v-12.025h5.691v12.025h5.977v5.266h-5.977v28.176zm41.625 0h-5.693v-4.625h-.141c-2.918 3.699-6.832 5.549-11.527 5.549-9.818 0-16.01-8.324-16.01-17.574 0-9.533 6.049-17.717 16.08-17.717 4.555 0 8.682 2.135 11.457 5.693h.141v-4.768h5.693v33.442zm-27.537-17.076c0 6.545 3.844 12.736 10.959 12.736 7.328 0 11.17-5.906 11.17-12.666 0-6.688-4.197-12.096-11.242-12.096-6.617 0-10.887 5.764-10.887 12.026zm32.943-16.09c0-7.59 6.051-13.639 13.709-13.639 7.66 0 13.711 6.049 13.711 13.639s-6.051 13.641-13.711 13.641c-7.658-.001-13.709-6.051-13.709-13.641zm25.321 0c0-6.436-5.352-11.541-11.611-11.541s-11.611 5.105-11.611 11.541 5.352 11.541 11.611 11.541 11.611-5.106 11.611-11.541zm-6.786-2.797c-.42-1.924-2.027-3.078-4.336-3.078-3.777 0-5.455 2.973-5.455 5.701 0 3.217 2.027 5.805 5.525 5.805 2.309 0 3.777-1.189 4.266-3.182h2.135c-.42 3.287-3.254 5.279-6.4 5.279-4.617 0-7.625-3.496-7.625-7.834 0-4.512 2.869-7.869 7.59-7.869 3.217 0 5.805 1.924 6.436 5.178h-2.136zM79.99 124.824c-2.135-3.699-4.696-5.834-9.249-5.834-4.768 0-8.895 3.414-8.895 8.324 0 4.625 4.768 6.76 8.396 8.396l3.558 1.564c6.974 3.061 12.879 6.547 12.879 15.084 0 9.393-7.542 16.578-16.863 16.578-8.609 0-15.013-5.549-16.721-13.873l5.835-1.637c.782 5.479 4.98 9.961 10.744 9.961 5.763 0 11.028-4.412 11.028-10.459 0-6.262-4.909-8.396-9.891-10.674l-3.272-1.422c-6.262-2.848-11.669-6.049-11.669-13.732 0-8.326 7.044-13.662 15.013-13.662 5.977 0 11.028 3.061 13.875 8.324l-4.768 3.062zm20.708 28.389c0 5.621.641 10.461 7.542 10.461s7.542-4.84 7.542-10.461v-18.641h5.692v19.281c0 8.895-3.345 15.084-13.234 15.084s-13.234-6.189-13.234-15.084v-19.281h5.692v18.641zm36.575-13.873h.142c2.775-3.701 6.902-5.693 11.527-5.693 9.818 0 16.009 8.467 16.009 17.717 0 9.535-6.048 17.574-16.08 17.574-4.554 0-8.752-1.992-11.456-5.621h-.142v23.48h-5.692v-52.225h5.692v4.768zm-.285 11.598c0 6.545 3.843 12.736 10.958 12.736 7.328 0 11.17-5.906 11.17-12.666 0-6.688-4.197-12.096-11.241-12.096-6.618 0-10.887 5.764-10.887 12.026zm38.782 1.564c.071 6.189 4.482 11.172 10.957 11.172 4.838 0 7.969-2.918 10.175-6.902l4.838 2.775c-3.201 5.977-8.609 9.391-15.439 9.391-9.961 0-16.365-7.613-16.365-17.219 0-9.889 5.764-18.072 16.223-18.072 10.744 0 16.437 8.895 15.867 18.855H175.77zm20.278-4.838c-.783-4.838-4.839-8.752-9.819-8.752-4.909 0-9.463 3.914-10.175 8.752h19.994zm19.214-9.463h.142c1.992-2.633 3.7-4.555 7.4-4.555 1.921 0 3.486.641 5.123 1.566l-2.704 5.193c-1.139-.783-1.921-1.494-3.415-1.494-6.262 0-6.546 8.041-6.546 12.381v16.721h-5.692v-33.441h5.692v3.629z"/><path d="M372.879 168H378v-17.34c-1 6.102-2.646 11.34-5.121 17.34zm13.486-34.354c-2.902 0-5.737.966-7.862 2.862.107 1.509.192 3.026.194 4.562a65.422 65.422 0 0 1-.073 3.232c.809-3.006 2.433-5.391 6.446-5.391 5.836 0 5.93 5.336 5.93 9.676V168h6v-20.336c0-7.045-2.096-14.018-10.635-14.018zm-83.267-20.037c-3.071-5.299-6.746-8.353-13.275-8.343-6.836.011-12.746 4.917-12.734 11.955.01 6.631 6.85 9.68 12.057 12.018l5.103 2.238c10.004 4.369 18.479 9.355 18.499 21.598.021 13.465-10.775 23.785-24.14 23.807-12.344.02-21.536-7.922-24.003-19.857l8.362-2.357c1.134 7.854 7.162 14.271 15.426 14.258 8.264-.012 15.802-6.35 15.789-15.021-.014-8.977-7.058-12.023-14.204-15.279l-4.696-2.033c-8.983-4.064-16.742-8.645-16.76-19.662-.019-11.935 10.067-19.601 21.495-19.619 8.567-.014 15.817 4.362 19.909 11.904l-6.828 4.393z"/><path d="M288.561 177.381c-12.308 0-21.904-7.951-24.447-20.256l-.094-.456 9.36-2.639.081.564c1.176 8.143 7.305 13.829 14.905 13.829 3.939-.006 7.825-1.512 10.687-4.132 2.99-2.738 4.634-6.428 4.628-10.389-.013-8.498-6.581-11.488-13.535-14.654l-.376-.171-4.688-2.029c-8.626-3.903-17.043-8.668-17.061-20.12-.009-5.751 2.345-10.957 6.628-14.658 4.066-3.513 9.523-5.453 15.366-5.462 8.752 0 16.155 4.434 20.349 12.166l.222.408-7.657 4.931-.263-.454c-3.332-5.749-7.043-8.094-12.811-8.094-3.291.005-6.345 1.146-8.631 3.213-2.349 2.125-3.64 5.051-3.635 8.24.009 6.286 6.497 9.199 11.709 11.539l5.15 2.26c9.5 4.149 18.777 9.27 18.798 22.055.021 13.608-10.801 24.285-24.639 24.308h-.046zm-23.371-20.004c2.583 11.562 11.709 19.004 23.37 19.004v.5l.044-.5c13.278-.021 23.662-10.259 23.641-23.306-.02-12.192-8.619-16.957-18.199-21.141l-5.103-2.238c-5.243-2.354-12.346-5.543-12.356-12.475-.006-3.476 1.402-6.667 3.964-8.983 2.469-2.233 5.761-3.466 9.27-3.472 5.973 0 10.01 2.441 13.442 8.142l5.996-3.861c-4.051-7.148-11.025-11.237-19.205-11.237-5.643.009-10.868 1.862-14.753 5.219-4.06 3.507-6.291 8.443-6.282 13.899.018 10.866 7.799 15.286 16.466 19.208l5.073 2.204c6.935 3.157 14.107 6.423 14.121 15.563.007 4.246-1.752 8.197-4.953 11.128-3.043 2.787-7.175 4.389-11.335 4.395-7.959 0-14.387-5.779-15.832-14.124l-7.369 2.075z"/><path fill="none" d="M313.816 206.162c-35.84.055-65.035-29.063-65.09-64.889-.056-35.845 29.047-65.035 64.887-65.09 35.832-.056 65.037 29.042 65.094 64.887.055 35.826-29.059 65.035-64.891 65.092z"/><path d="M377.043 126.615c-1.279-.305-2.693-.468-4.26-.465-5.813.01-11.521 2.67-14.369 7.979-2.559-4.994-7.666-8.314-13.275-8.307-4.896.008-8.973 2.178-11.518 6.178h-.201l-.008-4.832-8.162.197.074 48.039 8.162.033-.039-24.768c-.012-7.24.994-16.923 10.582-16.937 7.855-.012 8.582 8.561 8.59 14.479l.043 27.24 8.162-.014-.039-25.397c-.012-7.242.994-16.324 10.381-16.338 4.109-.008 6.295 1.842 7.463 4.457a64.838 64.838 0 0 0-1.586-11.544z"/></svg>