<svg id="Layer_1" xmlns="http://www.w3.org/2000/svg" viewBox="-245 378 119.3 38"><style>.st0{fill:#2188d6}</style><path id="XMLID_1395_" class="st0" d="M-220.1 406.8c-4 0-7.3-3.3-7.3-7.4s3.3-7.4 7.3-7.4c1.6 0 3.2.4 4.3 1.3v-1.1h3.5v14.3h-3.5v-.9c-1.2.7-2.6 1.2-4.3 1.2m-4-7.4c0 2.2 1.9 4.1 4 4.1 2.3 0 4.3-1.9 4.3-4.1 0-2.2-1.9-4.1-4.3-4.1-2.1-.1-4 1.9-4 4.1m20.5 7.4c-4.1 0-7.5-3.3-7.5-7.4s3.4-7.4 7.5-7.4c1.6 0 3.1.4 4.3 1.3v-6h3.5v19.3h-3.5v-.9c-1.3.6-2.8 1.1-4.3 1.1m-4.1-7.4c0 2.2 1.9 4.1 4.3 4.1 2.2 0 4.1-1.9 4.1-4.1 0-2.2-2-4.1-4.1-4.1-2.4-.1-4.3 1.9-4.3 4.1m17.2 7.1h-3.5v-14.3h3.6v14.3h-.1zm-3.5-19.3h3.6v3.6h-3.6v-3.6zm16.7 0h3.4v19.3h-3.4v-.9c-1.2.7-2.7 1.2-4.3 1.2-4.1 0-7.3-3.3-7.3-7.4s3.2-7.4 7.3-7.4c1.6 0 3 .4 4.3 1.3v-6.1zm-8.4 12.2c0 2.2 2 4.1 4.1 4.1 2.3 0 4.2-1.9 4.2-4.1 0-2.2-2-4.1-4.2-4.1-2.1-.1-4.1 1.9-4.1 4.1m20.5 7.4c-4 0-7.5-3.3-7.5-7.4s3.5-7.4 7.5-7.4c1.6 0 3.1.4 4.2 1.3v-1.1h3.5v14.3h-3.5v-.9c-1.2.7-2.7 1.2-4.2 1.2m-4-7.4c0 2.2 2 4.1 4.2 4.1s4-1.9 4-4.1c0-2.2-1.9-4.1-4-4.1-2.3-.1-4.2 1.9-4.2 4.1m19.5 7.4c3.5 0 6.4-1.4 6.4-4.9 0-2-1.4-3.3-3.6-3.9-2.3-.6-5.3-.5-5.3-2 .2-1 1-1.2 2.5-1.2 2.1 0 2.2 1.1 2.3 1.9h3.6c-.3-2.8-2.5-4.7-6-4.7-3.7 0-6 2-6 4.6 0 1.5.7 2.8 2 3.5 1 .4 2.2.7 3.6 1 1.6.1 3 .3 3 1.4 0 .7-.7 1.6-2.4 1.6-2.4 0-2.9-1.3-2.9-2.2h-3.7c.2 2.8 2.6 4.9 6.5 4.9"/></svg>