<svg id="Layer_1" xmlns="http://www.w3.org/2000/svg" viewBox="0 0 119.3 38"><style>.st0{fill:#595a5c}</style><g id="XMLID_428_"><path id="XMLID_468_" class="st0" d="M85.8 22.9c0-.1-.1-.2-.1-.2s-.1 0-.1.1c-.3.1-.7.3-1.4.3-1.2 0-2.4-1-2.4-2.5 0-1.7.9-2.6 2.2-2.6.7 0 1.2.2 1.6.5.2-.8.6-1.5 1-2.1-.2-.1-.5-.3-.9-.5-.6-.3-1.3-.4-2.1-.4-2.8 0-4.9 1.9-4.9 5.1 0 3.2 2.1 5.1 4.9 5.1 1.3 0 2.4-.4 2.4-.4.2-.1.6-.3.7-.3-.5-1-.8-1.8-.9-2.1"/><path id="XMLID_1292_" class="st0" d="M22.4 12.4h5.4c2.1 0 3.7 1.1 3.7 3.3 0 1.6-.7 2.6-2 3.1 1.5.4 2.3 1.3 2.3 2.9 0 3.1-2.4 3.8-4.4 3.8h-5V12.4zm3 10.6h1.2c1.1 0 2.2-.2 2.2-1.5 0-1.4-1.2-1.6-2.2-1.6h-1.2V23zm0-5.5h1.1c1 0 2-.3 2-1.4 0-1.2-1-1.3-2-1.3h-1.1v2.7z"/><path id="XMLID_1289_" class="st0" d="M59.2 25.4h-2.7V24c-.6 1.1-1.6 1.7-2.9 1.7-2.5 0-3.8-2.4-3.8-5.3 0-2.4 1.3-4.9 3.6-4.9 1.2 0 2.1.4 2.9 1.5v-4.6h2.9v13zm-4.6-2.3c1 0 1.8-1.1 1.8-2.5 0-1.5-.7-2.5-1.8-2.5s-1.8 1.1-1.8 2.4c0 1.5.7 2.6 1.8 2.6"/><path id="XMLID_1286_" class="st0" d="M87.2 20.6c0-3.2 2.1-5.1 4.9-5.1 2.8 0 4.9 1.9 4.9 5.1 0 3.2-2.1 5.1-4.9 5.1-2.8 0-4.9-1.9-4.9-5.1m6.7 0c0-1.5-.5-2.8-1.9-2.8-1.3 0-1.9 1.3-1.9 2.8 0 1.4.5 2.7 1.9 2.7s1.9-1.3 1.9-2.7"/><path id="XMLID_1282_" class="st0" d="M48.5 25.4c-.1-.8-.2-1.5-.2-2.3v-3.6c0-3-1.8-4-4-4-1.2 0-2.3.2-3.3.7v2.3c.8-.5 1.7-.7 2.7-.7 1 0 1.9.4 1.9 1.7-.4-.1-.9-.1-1.4-.1-1.5 0-4.3.4-4.3 3.3 0 2.1 1.5 3.1 3.1 3.1 1.1 0 2-.5 2.6-1.5v1.3h2.9v-.2zm-2.9-3.1c-.4.7-1 1-1.8 1-.7 0-1.2-.4-1.2-1.1 0-.9.8-1.3 1.8-1.3.4 0 .9 0 1.2.1v1.3z"/><path id="XMLID_458_" class="st0" d="M38.5 15.5c-1.3 0-2 .8-2.5 2v-1.8h-2.6v9.8h2.9v-4.1c0-1.9.7-3.1 2.1-3.2.3 0 .7.1 1 .2v-2.7c-.3-.2-.6-.2-.9-.2"/><path id="XMLID_1277_" class="st0" d="M69.5 20.9c0-2.9-1.1-5.5-4.2-5.5-2.6 0-4.5 1.9-4.5 5.1 0 3.2 2.1 5.1 4.9 5.1 1.1 0 2.1-.2 3.1-.6v-2.4c-.9.5-1.8.7-2.6.7-1.4 0-2.3-.5-2.5-1.9h5.8v-.5zm-5.9-1.3c.1-1.1.6-2 1.6-2 1.2 0 1.6.9 1.6 2h-3.2z"/><path id="XMLID_455_" class="st0" d="M74.3 15.5c-1.7 0-3.6.9-3.6 3.2 0 3.5 4.1 2.4 4.1 4 0 .7-.6.8-1.2.8-1 0-2-.3-2.7-.7v2.3c.8.3 1.7.6 2.9.6 1.9 0 3.9-.7 3.9-3.3 0-3.7-4.3-2.5-4.3-4 0-.5.7-.7 1.3-.7.7 0 1.7.3 2.3.7V16c-.8-.3-1.7-.5-2.7-.5"/></g></svg>