<svg id="Layer_1" xmlns="http://www.w3.org/2000/svg" viewBox="0 0 119.3 38"><style>.st0{fill:#e01f26}</style><g id="XMLID_1341_"><g id="XMLID_139_"><path id="XMLID_155_" class="st0" d="M24.5 19.2h3.3s-.6-2.4-4.3-3H18s-2.4-.2-4.1 2.1c-1.7 2.3.3 5.3 1.8 6 1.5.7 3.3.7 3.3.7h4s3.6 0 4.7-3.1h-3.3s-1 1.8-2.9 1.8h-2.3s-2.7-.6-2.7-3.2 2.8-3.1 3.1-3.1h2s2 .1 2.9 1.8z"/><path id="XMLID_154_" class="st0" d="M29.7 16.8v7.6s0 .4.3.4h3v-8.1s0-.3-.4-.3h-2.7s-.2 0-.2.4z"/><path id="XMLID_153_" class="st0" d="M34.8 18v-1.4s0-.3.4-.3h12.2s.4.1.4.3v1.3h-4.5s-.4 0-.4.4v6.4h-3s-.3 0-.3-.3v-4.9s0-.4-.4-.9c-.4-.4-.9-.7-1.4-.7-.5.1-3 .1-3 .1z"/><g id="XMLID_148_"><g id="XMLID_149_"><path id="XMLID_150_" class="st0" d="M60.1 21.7c1.1-.3 1.9-1 2.2-1.8.3-.8.3-1.6-.6-2.6-.9-1-2.2-.9-2.2-.9h-8.4c-1.4 0-1.5 1.5-1.5 1.5v6.6c0 .3.3.3.3.3h3v-3H56c3.2.2 3.4 2.9 3.4 2.9h3.2c-.1-2.1-2.5-3-2.5-3zm-2-1.4h-5.3v-1.8s.1-.6.7-.6H58s1.2.1 1.2 1.2c0 1.1-1.1 1.2-1.1 1.2z"/></g></g><g id="XMLID_143_"><g id="XMLID_144_"><path id="XMLID_145_" class="st0" d="M73.7 16.3h-5.3s-4.6.3-4.6 4.2c0 4 4.6 4.5 4.6 4.5h5.1s5-.3 5-4.4c.1-4.2-4.8-4.3-4.8-4.3zm-1.5 7.4h-2s-3-.2-3-3.2 2.8-3 2.8-3h2.1s3.2 0 3.2 2.8-2.2 3.4-3.1 3.4z"/></g></g><path id="XMLID_142_" class="st0" d="M80.1 16.8v6.5s.2 1.6 1.6 1.6h9.6s.3 0 .3-.3v-1.2h-7.8s-.4 0-.4-.5v-1.5h6.7v-1.5h-6.7v-1.5s0-.4.5-.4h7.8v-1.2s0-.3-.5-.3H80.5s-.3-.1-.4.3z"/><path id="XMLID_141_" class="st0" d="M85.9 13.8h.2s.1 0 .4-.2c.3-.2.5-.6 1.5-.6s1.6.5 1.6 1c0 .4-.4 1-1.6 1-1.1 0-1.7-.7-1.9-.7h-.3s-.4.1-.8.4c-.3.3-.7.3-1.3.3-.6 0-1.3-.4-1.3-1s.8-1 1.6-1 1.3.4 1.5.6c.2.1.2.2.4.2z"/><path id="XMLID_140_" class="st0" d="M93.5 16.7v7.7s0 .4.3.4h3v-6.6s0-.3.4-.3h3.6s2 .4 2 2.5v4.1s-.1.4.4.4h2.8v-4.2s0-3.8-4.6-4.2h-7.5c-.1-.1-.4-.2-.4.2z"/></g></g></svg>