<svg id="Layer_1" xmlns="http://www.w3.org/2000/svg" viewBox="0 0 119.3 38"><style>.st0{fill:#eb2227}</style><g id="XMLID_901_"><path id="XMLID_1028_" class="st0" d="M32.9 28.2c-3 0-5.4-2.4-5.4-5.4 0-3 2.4-5.4 5.4-5.4 2.2 0 4 1.3 4.9 3.1h3.6c-1-3.8-4.4-6.6-8.5-6.6-4.8 0-8.8 3.9-8.8 8.8s3.9 8.8 8.8 8.8c4 0 7.4-2.7 8.5-6.5h-3.6c-1 2-2.8 3.2-4.9 3.2z"/><path id="XMLID_1365_" class="st0" d="M77 17.5c-3.8 0-6.9 3.1-6.9 6.9 0 3.8 3.1 6.9 6.9 6.9 3.8 0 6.9-3.1 6.9-6.9 0-3.8-3.1-6.9-6.9-6.9zm0 10.6c-2.1 0-3.7-1.7-3.7-3.7 0-2.1 1.7-3.7 3.7-3.7 2.1 0 3.7 1.7 3.7 3.7 0 2.1-1.7 3.7-3.7 3.7z"/><path id="XMLID_1362_" class="st0" d="M56.3 30.2v1.3h3.4l-.1-10.8s.2-3.1-5.5-3.1-5.9 4.5-5.7 4.6h3.5s0-2.5 3.1-1.8c0 0 1.4 0 1.3 1.4-.1 1.4-2.2 1.4-3.5 1.4-1.3 0-6.3 1.3-4 6.8 0 0 1.1 2 4.6 1.4 0 0 1.6-.1 2.9-1.2 1.2-1.1 0 0 0 0zm-3-1c-2.5.2-2.3-3.3-.4-3.5 2-.3 3.2-1 3.2-1v1.2c.1 1.1-.3 3.1-2.8 3.3z"/><g id="XMLID_1352_"><path id="XMLID_1355_" class="st0" d="M69.6 21.4c-.4-.3-4.3-.7-4.3 3.3v6.7h-3.4V18.3h3.4v1.4s1.1-1.9 4.3-2v3.7z"/></g><path id="XMLID_1022_" class="st0" d="M42.8 14.1h3.4v17.2h-3.4z"/><path id="XMLID_1021_" class="st0" d="M76.5 6.4h3.3v8.5h-3.3z"/><path id="XMLID_1020_" class="st0" d="M86.7 20.8h8.5v3.3h-8.5z"/><path id="XMLID_1019_" transform="rotate(45.001 87.858 13.032)" class="st0" d="M86.3 7.3h3.1v11.6h-3.1z"/></g></svg>