<svg id="Layer_1" xmlns="http://www.w3.org/2000/svg" viewBox="0 0 119.3 38"><style>.st0{fill-rule:evenodd;clip-rule:evenodd;fill:#c23432}</style><g id="XMLID_899_"><path id="XMLID_65_" class="st0" d="M50.7 28.4c-2.9-1.9-6.8-2.2-13.1-.4-6.7 1.6-9 2.6-11.9.6-1.1-1-1.5-2.6-1.2-4.9.7-3.8 2.6-7.4 6-11.4 1.9-2.1 3.6-3.9 5.9-4.6 1.8-.5 1.6.9 1.4 1.1-.2 0-.6 0-.9.2-.2.2-.9.8-.9 1.6-.1 1.2 1.2 1 1.8.3.6-.8 1.5-2.2.8-3.6-.3-.5-.8-.8-1.4-.9-2.1-.1-4.1.9-5.9 2-4 2.8-7.1 6.6-8.9 10.8-1 2.5-2 6.1-.6 9.1 1.1 2 3.3 3.1 6 2.9 1.9-.2 4.2-.8 5.7-1.2 1.5-.4 9.4-3.1 12 1.6 0 0 .9-1.7 3-1.7 1.8-.2 4.3.5 6.2 1.9-.8-1-2.6-2.4-4-3.4z"/><path id="XMLID_1361_" class="st0" d="M38.4 12.7c-1.5-1-4.4.9-6.8 4-2.2 2.8-3.1 6.1-2.1 7.7 1.5 1.8 4.3-.8 5.5-2.2l.2-.2c.8-.9 1.4-1.9 2-2.9 0 0 .6-.9.6-1 .3-.1.8-.2 1.2-.3 0 0-1.8 3-1.6 4.5.1.5 0 2.1 1.6 2.6 2.2.4 3.9-1.3 5.4-2.8 0 0 .3-.2.4-.4 0 .1-.1.3-.1.3-.6 2.2.2 2.7.8 2.8 1.6.5 3.5-1.9 3.5-1.9 0 .7-.2 1.3.6 1.8.7.3 1.5-.1 2-.5 2-1.4 3.7-3.7 5-5.6h-.8s-2.1 3-3.4 3.6c0 0-.2.1-.4 0s-.1-.5 0-.7l5.2-9h-2.4l-.3.5-.1-.1c-1.5-2.1-5 1.1-7.5 4.9-1 1.4-2.3 3.1-3.6 4.2 0 0-1.9 1.8-2.8.5-.3-.5-.2-1.3 0-1.8 1-2.8 2.6-5.3 4.5-6.8.5-.4 1.1-.5 1.4-.4.3.2.3.6.1.8-.4 0-.8.1-1.1.4-.6.6-.8 1.2-.6 1.7.9 1.2 2.6-1.2 2.5-2.7 0-.5-.3-1-.7-1.3-.6-.4-1.6-.3-2.2 0-.8.3-2.2 1.4-3 2.3-1 1.1-2.7 2.3-3.2 2.2.2-.2 1.7-3.1.2-4.2zM50.2 17c.5-.7 1.9-2.4 2.2-2.7 1.1-1 1.6-.6 1.6-.2-1.1 1.9-2.3 4.1-3.5 6l-.4.6c-.5.8-1 1.5-1.9 1.9h-.5c-.2-.1-.2-.3-.2-.5.1-.7.7-2.5 2.7-5.1zm-13.4 1.1s0 .1 0 0c0 .1-1.1 1.8-1.1 1.8-.6.9-1.4 1.9-2.4 2.5-.3.1-.7.2-.9-.1-.4-.5-.2-1.3 0-1.9l.1-.2c.5-1.4 1.4-2.7 2.2-3.9.5 1 1.5 1.5 2.2 1.7 0 0 0 .1-.1.1zm1.1-2l-.5 1.1c-.1.1-.2 0-.3 0h-.2c-.7-.2-1.2-.6-1.3-1.2-.2-1 .7-1.8 1-2.1.4-.3.9-.4 1.3-.1.2.2.3.6.3.9 0 .4-.2.9-.3 1.4z"/><path id="XMLID_1354_" class="st0" d="M68.8 19.4c-.2-.5-.8-.8-1.4-.8-1.9.2-3.8 1.8-4.8 4.1-.5 1.2-.8 2.1-1 3.7.6-.7 1.8-1.8 3.2-2.5 0 0 .2-1.5 1.2-2.8.4-.5 1.1-1.4 1.9-1.2.7.2.5 2.2-.5 4.2-.7 1.4-1.8 2.8-2.9 3.8-1 .8-2.4 1.8-3.7 1-.8-.5-1.2-1.4-1.1-2.7.4-3.6 2-6.6 4.3-10.1 2.4-3.2 5.1-6.5 8.6-8.3.7-.4 1.4-.5 2-.2 0 0-3.4 1.8-4.9 5.3-.4.9-1 2-.4 3.1.3.5.8.6 1.3.6 2-.5 3.2-2.3 4.3-4 .6-1.3 1.1-2.5 1.1-3.9v-.6c.9-.5 2.9.4 2.9.4 1.5.5 4.7 2.9 5.8 3.4.5-.6 1.4-1.5 1.9-2l-.7-.4c-1.1-.7-2.3-1.3-3.5-2-2.7-1.5-4.8-.9-5.9-.5-.4.2-.8.3-.8.3-.8-.9-2.2-.8-3.1-.6-3.6 1-6.9 3.5-10.4 7.8-2.6 3.4-4.2 6.3-5.1 9.2-.7 1.9-.9 4.8.8 6.5 1.4 1.4 3.2 1.1 4.5.6 2.8-1.4 5.3-4.3 6.6-7.7 0-1.2.3-2.6-.2-3.7zm6.4-10.7c-.4 4.2-3.7 6.7-4.5 6.9-.5.1-1.3-.1-.6-1.9 1.1-2.4 3-4.4 5-5.5.1.2.1.3.1.5z"/><path id="XMLID_58_" class="st0" d="M94.8 9.2c-1.8 1-3.6 1.7-5.8 1.4l-1.8 2.1c3.1.8 6.4-1 8.3-2.7 2-1.7 3-3.8 3-3.8s-1.6 1.8-3.7 3z"/><path id="XMLID_57_" class="st0" d="M61.3 12.7h-2.4l-1.3 2.2H60l1.3-2.2z"/><path id="XMLID_900_" class="st0" d="M88.9 28.7c-.2.2-.6 0-.5-.4.3-1 1.6-3 1.6-3l3.6-6.4h-2.5c-.1.2-.4.7-.4.7-.1-.2-.5-.6-.6-.7-.6-.4-1.5-.2-2.1.1-2.7 1.6-4.6 4.6-6.1 7 0 0-1.6 2.7-2.5 2.9-.7.1-.6-.9-.6-1.1.3-1.6.9-3.1 1.5-4.5 1.3-.9 2.8-2.1 4.1-3.3 2.9-2.8 5.3-5.9 5.7-6.6 0 0-.4.1-.8.1-2.2 3.1-6.8 7.6-8.2 8.3.6-1.5 4.6-8.5 7.9-11.9l.5-.5c.8-.8 1.7-1.6 2.3-1.8.1 0 .2 0 .2.2 0 .6-.2 1.1-.5 1.6l-.4.8s.5-.1.9-.2c.4-.8.8-1.6.7-2.6-.1-.3-.3-.6-.6-.6-1-.2-2.1.6-3 1.2-4.5 3.6-8.4 8.7-11.7 15.7-.2.2-1.2.4-1.3.3.3-.7.7-1.6 1-2.6 0-.3.1-.6.1-.9 0-.6-.1-1.2-.7-1.6-.6-.3-1.4-.2-2 .1-2.4 1-4.2 3.4-5.5 5.5-.7 1.3-1.4 2.7-1.6 4.2-.1 1.2.1 2 .8 2.4.7.4 1.6 0 2-.2 2.4-1.3 4.1-3.8 5.5-6.2.1 0 .8 0 1.3-.2 0 .1-.3 1-.3 1-.8 2.5-1.2 4.2-.4 5.2 1.1 1.4 3 0 4.6-2-.3 2.3.9 2.7 1.8 2.5 1-.3 2.2-1.4 2.8-2-.2.7-.1 1.9.8 2 .7.1 1.1-.2 1.7-.5 2-1.1 4.5-4.8 5.1-5.8h-.8c-.8 1.1-1.9 2.9-3.4 3.8zm-18.2-.3c-.1-.2-.2-.4-.2-.6 0-1.4 1.5-3.9 2.5-5.2.4 1 1.4 1.6 2 1.9-.7 1.5-3.2 5.1-4.3 3.9zm4.8-4.8c-.1 0-1.3-.4-1.6-1.5-.2-1 .5-1.8 1.2-2.2.3-.2.7-.3 1-.2.3.2.4.6.4.9 0 .2 0 .5-.1.7-.2.9-.5 1.7-.9 2.3zm10.1 4.3l-.2.2c-.3.3-.7.6-1.1.5-.1 0-.2-.2-.2-.3 0-.9.4-1.7.8-2.5l.1-.2c1.1-1.8 2.4-4 4.2-5.5.3-.2.7-.4 1-.3.1.1.2.2.2.3 0 0 0 .2-.1.2-.5.8-1 1.7-1.5 2.6-1 1.8-1.9 3.5-3.2 5z"/></g></svg>