<svg id="Layer_1" xmlns="http://www.w3.org/2000/svg" viewBox="0 0 119.3 38"><style>.st0{fill:#c8d42c}</style><g id="XMLID_999_"><g id="XMLID_129_"><path id="XMLID_149_" class="st0" d="M31.3 8.8c.4-2.3.8-4.3 2.3-5.9 1-1.2 2.3-1.8 3.7-1.8 0 0 .5 0 .9.1l-.1.8s-.8-.1-1.2 0c-.6.2-.9.5-1.4 1-.8.9-1 2-1.5 4.4l-1.5 8.1h3.9l-.2 1.1h-3.8L30 29.3c-.4 2.3-.8 4.3-2.3 5.9-1 1.2-2.3 1.8-3.7 1.8h-.5l.3-.9h.4c.8-.1 1.3-.4 1.7-1.1.7-1.1.9-1.7 1.4-4.2L30 16.7h-3.8l.2-1.1h3.8l1.1-6.8z"/><path id="XMLID_146_" class="st0" d="M90.8 15l-.2 1h-.1c-.4-1-1.2-.6-2.1-.6-2.5 0-4 2.3-4.4 4.3-.6 2.9.3 4.6 2.6 4.6 1 0 1.8.2 2.8-.7L90 25h1l1.5-10h-1.7zm-1 5.7c-.2.7-1 3-2.8 3-2.2 0-1.1-3.4-1-4 .2-.6 1-3 2.8-3 2.2 0 1.2 3.4 1 4z"/><path id="XMLID_145_" class="st0" d="M83.1 7.1s-2.5 13-2.7 14.3c-.3 2 .7 2.3 1.2 2.3 1 .2 1.7 0 1.7 0l.1-.7s-.4.1-.8 0c-.6 0-.7-.4-.6-1.4.2-1.3 2.8-14.5 2.8-14.5h-1.7z"/><path id="XMLID_142_" class="st0" d="M71.9 15.5c-2.2 0-4.2 1.5-4.6 3.8-.8 4 2.2 4.7 3.4 4.7 1.1 0 1.9-.4 2.5-.8l-.6-.7c-.4.3-1 .5-1.6.5-2.1 0-2.3-1.7-2.2-3h5.9c.7-1.9.1-4.5-2.8-4.5zm1.4 3.6h-4.2c.3-1.1 1.2-2.8 2.7-2.8 1.7 0 1.7 1.7 1.5 2.8z"/><path id="XMLID_139_" class="st0" d="M41.6 15l-.2 1h-.1c-.4-1-1.2-.6-2.1-.6-2.5 0-3.9 2.3-4.4 4.3-.6 2.9.3 4.6 2.6 4.6 1 0 1.8.2 2.8-.7l.4 1.4h1l1.5-10h-1.5zm-1 5.7c-.2.7-1 3-2.8 3-2.2 0-1.1-3.4-1-4 .2-.6 1-3 2.8-3 2.2 0 1.2 3.4 1 4z"/><path id="XMLID_136_" class="st0" d="M63.5 15.5c-1 0-2.3.6-2.8 1.3l1.9-9.7h-1.7s-2.5 13.5-3.2 16.7h1l.6-.9c.6.9 1.3 1.2 2.3 1.2 2.4 0 3.9-1.6 4.5-4.5.5-2.1-.1-4.1-2.6-4.1zm.7 4.8c-.2.7-1 3-2.6 3-2 0-1.3-3.4-1.2-4 .3-1 .9-3 2.5-3 2.2 0 1.4 3.3 1.3 4z"/><path id="XMLID_135_" class="st0" d="M93.7 22.7c0-.6.5-1.1 1.1-1.1.6 0 1.1.5 1.1 1.1 0 .6-.5 1.1-1.1 1.1-.6.1-1.1-.5-1.1-1.1z"/><path id="XMLID_132_" class="st0" d="M55.1 15l-.2 1h-.1c-.4-1-1.2-.6-2.1-.6-2.5 0-3.9 2.3-4.4 4.3-.6 2.9.3 4.6 2.6 4.6 1 0 1.8.2 2.8-.7l.4 1.4h1l1.5-10h-1.5zm-1 5.7c-.2.7-1 3-2.8 3-2.2 0-1.1-3.4-1-4 .2-.6 1-3 2.8-3 2.2 0 1.2 3.4 1 4z"/><path id="XMLID_131_" class="st0" d="M78.6 7.1s-2.5 13-2.7 14.3c-.3 2 .7 2.3 1.2 2.3 1 .2 1.7 0 1.7 0l.1-.7s-.4.1-.8 0c-.6-.1-.7-.5-.6-1.5.2-1.3 2.8-14.5 2.8-14.5h-1.7v.1z"/><path id="XMLID_130_" class="st0" d="M47.4 7.1s-2.5 13-2.7 14.3c-.3 2 .7 2.3 1.2 2.3 1 .2 1.7 0 1.7 0l.1-.7s-.4.1-.8 0c-.6-.1-.7-.5-.6-1.5.2-1.3 2.8-14.5 2.8-14.5h-1.7v.1z"/></g><g id="XMLID_108_"><path id="XMLID_128_" class="st0" d="M31.3 8.8c.4-2.3.8-4.3 2.3-5.9 1-1.2 2.3-1.8 3.7-1.8 0 0 .5 0 .9.1l-.1.8s-.8-.1-1.2 0c-.6.2-.9.5-1.4 1-.8.9-1 2-1.5 4.4l-1.5 8.1h3.9l-.2 1.1h-3.8L30 29.3c-.4 2.3-.8 4.3-2.3 5.9-1 1.2-2.3 1.8-3.7 1.8h-.5l.3-.9h.4c.8-.1 1.3-.4 1.7-1.1.7-1.1.9-1.7 1.4-4.2L30 16.7h-3.8l.2-1.1h3.8l1.1-6.8z"/><path id="XMLID_125_" class="st0" d="M90.8 15l-.2 1h-.1c-.4-1-1.2-.6-2.1-.6-2.5 0-4 2.3-4.4 4.3-.6 2.9.3 4.6 2.6 4.6 1 0 1.8.2 2.8-.7L90 25h1l1.5-10h-1.7zm-1 5.7c-.2.7-1 3-2.8 3-2.2 0-1.1-3.4-1-4 .2-.6 1-3 2.8-3 2.2 0 1.2 3.4 1 4z"/><path id="XMLID_124_" class="st0" d="M83.1 7.1s-2.5 13-2.7 14.3c-.3 2 .7 2.3 1.2 2.3 1 .2 1.7 0 1.7 0l.1-.7s-.4.1-.8 0c-.6 0-.7-.4-.6-1.4.2-1.3 2.8-14.5 2.8-14.5h-1.7z"/><path id="XMLID_121_" class="st0" d="M71.9 15.5c-2.2 0-4.2 1.5-4.6 3.8-.8 4 2.2 4.7 3.4 4.7 1.1 0 1.9-.4 2.5-.8l-.6-.7c-.4.3-1 .5-1.6.5-2.1 0-2.3-1.7-2.2-3h5.9c.7-1.9.1-4.5-2.8-4.5zm1.4 3.6h-4.2c.3-1.1 1.2-2.8 2.7-2.8 1.7 0 1.7 1.7 1.5 2.8z"/><path id="XMLID_118_" class="st0" d="M41.6 15l-.2 1h-.1c-.4-1-1.2-.6-2.1-.6-2.5 0-3.9 2.3-4.4 4.3-.6 2.9.3 4.6 2.6 4.6 1 0 1.8.2 2.8-.7l.4 1.4h1l1.5-10h-1.5zm-1 5.7c-.2.7-1 3-2.8 3-2.2 0-1.1-3.4-1-4 .2-.6 1-3 2.8-3 2.2 0 1.2 3.4 1 4z"/><path id="XMLID_115_" class="st0" d="M63.5 15.5c-1 0-2.3.6-2.8 1.3l1.9-9.7h-1.7s-2.5 13.5-3.2 16.7h1l.6-.9c.6.9 1.3 1.2 2.3 1.2 2.4 0 3.9-1.6 4.5-4.5.5-2.1-.1-4.1-2.6-4.1zm.7 4.8c-.2.7-1 3-2.6 3-2 0-1.3-3.4-1.2-4 .3-1 .9-3 2.5-3 2.2 0 1.4 3.3 1.3 4z"/><path id="XMLID_114_" class="st0" d="M93.7 22.7c0-.6.5-1.1 1.1-1.1.6 0 1.1.5 1.1 1.1 0 .6-.5 1.1-1.1 1.1-.6.1-1.1-.5-1.1-1.1z"/><path id="XMLID_111_" class="st0" d="M55.1 15l-.2 1h-.1c-.4-1-1.2-.6-2.1-.6-2.5 0-3.9 2.3-4.4 4.3-.6 2.9.3 4.6 2.6 4.6 1 0 1.8.2 2.8-.7l.4 1.4h1l1.5-10h-1.5zm-1 5.7c-.2.7-1 3-2.8 3-2.2 0-1.1-3.4-1-4 .2-.6 1-3 2.8-3 2.2 0 1.2 3.4 1 4z"/><path id="XMLID_110_" class="st0" d="M78.6 7.1s-2.5 13-2.7 14.3c-.3 2 .7 2.3 1.2 2.3 1 .2 1.7 0 1.7 0l.1-.7s-.4.1-.8 0c-.6-.1-.7-.5-.6-1.5.2-1.3 2.8-14.5 2.8-14.5h-1.7v.1z"/><path id="XMLID_109_" class="st0" d="M47.4 7.1s-2.5 13-2.7 14.3c-.3 2 .7 2.3 1.2 2.3 1 .2 1.7 0 1.7 0l.1-.7s-.4.1-.8 0c-.6-.1-.7-.5-.6-1.5.2-1.3 2.8-14.5 2.8-14.5h-1.7v.1z"/></g></g></svg>