<svg id="Layer_1" xmlns="http://www.w3.org/2000/svg" viewBox="-245 378 119.3 38"><style>.st0{fill:#cb0202}</style><g id="g2931" transform="matrix(.48159 0 0 .48597 -1100.143 361.524)"><path id="path2933" class="st0" d="M1897.8 76l13-.1c1.2 0 2.9.2 4.3 1.1 1.3.8 1.9 2.1 1.9 3.7 0 1.3-.4 2.3-1 3-1.3 1.3-3.5 1.3-5.1 1.3h-13.2v-.1l.1-8.9zm0-7v-7.9h11.9c2.1 0 5.6 0 5.6 4.1 0 1.5-.7 2.6-2 3.2-1.2.5-2.6.6-3.6.6h-11.9zm13.6 22.8c4.5 0 7.9-1.1 10.1-3.3 2.3-2.2 2.7-5.1 2.7-7.1 0-4.4-1.8-7.4-5.5-9.1l-.2-.1.2-.1c1.6-.9 3.8-2.6 3.8-7.8 0-2.9-1.1-5.4-3.1-7.2-2.2-2-5.3-3.1-9.1-3.1h-19.7v37.6"/><path id="path2935" class="st0" d="M1838.8 91.8h7.5V54.2h-7.5v37.6z"/><path id="path2937" class="st0" d="M1852.4 72.7c0 3.6.6 6.6 1.9 9.2 1.1 2.1 2.6 3.9 4.7 5.6 3.4 2.7 8.1 4 14 4h10.3v-7.1h-9.7c-5.4 0-9.3-1.3-11.6-4-1.7-1.9-2.5-4.4-2.5-7.5 0-3.3.9-6 2.8-7.9 2.3-2.4 6.2-3.6 11.4-3.6h9.7v-7h-9.9c-3.3 0-6.1.3-8.6 1-2.4.7-4.4 1.7-6.1 3.1-2.4 2.1-6.4 6.5-6.4 14.2"/><path id="path2939" class="st0" d="M1928.8 72.7c0 3.6.6 6.8 1.9 9.5 1.1 2.3 2.7 4.3 4.7 5.9 3.2 2.5 7.6 3.7 14 3.7h10.8v-7.1H1950c-5.4 0-9.3-1.4-11.6-4.1-1.7-1.9-2.5-4.5-2.5-7.7 0-3.4.9-6.2 2.9-8.1 2.4-2.4 6.2-3.6 11.3-3.6h10.3v-7h-10.5c-3.3 0-6.1.3-8.6 1-2.4.7-4.4 1.7-6.1 3.1-2 1.6-6.4 6.2-6.4 14.4"/></g></svg>