<svg id="Layer_1" xmlns="http://www.w3.org/2000/svg" viewBox="0 0 119.3 38"><style>.st0{fill-rule:evenodd;clip-rule:evenodd;fill:#2e368f}</style><g id="XMLID_1269_"><path id="XMLID_1270_" class="st0" d="M74 13.5h2.9l3.6-3.7h-4L74 13.5zm-1.1.9h-4.2v7.8c0 2.1.5 3.7 1.6 4.7.9.9 2.1 1.3 3.6 1.3 2.1 0 3.7-.8 4.6-2.5h.1v2.2h3.7V14.4H78v7.9c0 .4-.1.7-.1.8-.5 1.1-1.3 1.7-2.6 1.7-1.6 0-2.5-1.1-2.5-3.4v-7h.1zm-10.8 4.5c-2.8 0-4.9.4-6.3 1.3-1.5.9-2.3 2.2-2.3 4 0 1.1.4 2 1.2 2.8.9.8 2 1.3 3.4 1.3 1.9 0 3.2-.6 4.2-1.7h.1V28h3.8v-8c0-1.8-.5-3.2-1.4-4.2-1.1-1.1-2.7-1.7-4.9-1.7s-4.1.4-5.5 1.3l.8 2.6c1.2-.7 2.5-1.1 4-1.1 1.9 0 2.8.6 2.8 1.9v.1h.1zm-10.2-4.5h-2.6V9.8h-4.1v4.6h-1.9v3.1h1.9v5.4c0 1.9.4 3.2 1.1 4 .8.8 1.9 1.3 3.3 1.3.9 0 1.6-.1 2.3-.4l-.1-3.2c-.1.1-.4.2-.8.2-.7 0-1.1-.2-1.4-.7-.2-.4-.4-1-.4-1.9v-4.8h2.6v-3h.1zm5.5 9.4c0-1.6 1.6-2.3 4.8-2.3v1.4l-.1.8c-.2.5-.5 1-1 1.3-.5.4-1.1.6-1.7.6-1.3 0-2-.6-2-1.8zm-20.3-14v18.1h4.3V9.8h-4.3z"/></g></svg>