<svg id="Layer_1" xmlns="http://www.w3.org/2000/svg" viewBox="-245 378 119.3 38"><style>.st0{fill:#ffd321}</style><g id="XMLID_31_"><path id="XMLID_69_" class="st0" d="M-202.8 393l.9.7v4.5c-.6-.7-1.1-1.4-1.5-1.9-.5-.6-.9-1.1-1.2-1.5-.4-.4-.7-.8-.9-1.1s-.4-.5-.5-.7h-2v.1l1 .7c.1 2.2.1 4 0 5.4l-.8.7v.1h2.3v-.1l-.9-.7c-.1-1.6-.1-3.2-.1-4.7l4 5.1.2.2c.1.1.1.2.1.2h.9c-.1-.9-.1-1.8-.1-2.8v-3.3l.8-.7v-.3l-2.2.1z"/><path id="XMLID_68_" class="st0" d="M-196.3 393.5l.8-.6h-2.8v.1l.8.6v5.6l-.8.6v.1h2.8v-.1l-.8-.6c-.1-1.9-.1-3.7 0-5.7"/><path id="XMLID_67_" class="st0" d="M-188.6 399.2h-2.8v-2.7h2.1l.5.8h.1v-2.1h-.1l-.4.7h-2.2v-2.4h2.7l.6.8h.1v-1.4h-5.4v.1l.8.6v5.6l-.8.6v.1h5.5v-1.5h-.1l-.6.8z"/><path id="XMLID_66_" class="st0" d="M-212.2 393l.9.7v4.5c-.5-.7-1-1.4-1.5-1.9-.5-.6-.9-1.1-1.2-1.5-.4-.4-.6-.8-.9-1.1-.2-.3-.4-.5-.5-.7h-2v.1l.9.7c.1 2.2.1 4 0 5.4l-.8.7v.1h2.3v-.1l-.9-.7c0-1.6-.1-3.2-.1-4.7l4 5.1.2.2c.1.1.1.2.1.2h.9c-.1-.9-.1-1.8-.1-2.8v-3.3l.8-.7v-.3l-2.1.1z"/><path id="XMLID_52_" class="st0" d="M-171.4 391.2c.1.1.3.2.4.3s.3.2.4.3c-.2.9-.5 1.7-.7 2.4s-.4 1.3-.5 1.9c-.2.5-.3 1-.4 1.3s-.2.6-.2.7l-1.9-6.3.4-.4c.1-.1.2-.2.4-.3v-.1h-3v.1l.8.6c-.2.7-.4 1.3-.6 1.9-.2.6-.3 1.1-.5 1.6s-.3 1-.4 1.4c-.1.4-.2.9-.4 1.3l-1.8-6.2.7-.6v-.1h-2.9v.1l.3.3c.1.1.2.1.2.2.1 0 .1.1.1.1l.1.1c.1.3.2.7.4 1.3.2.6.4 1.2.6 1.9.2.7.5 1.5.7 2.3.3.8.5 1.7.8 2.6h1v-.5c0-.1 0-.1.1-.2.1-.3.2-.6.3-1 .1-.4.2-.7.3-1.1l.3-1.2.3-1.2c.1-.4.2-.8.3-1.1.1-.4.2-.7.3-1l2.3 7.2h.9c0-.2.1-.4.2-.9.1-.4.3-1 .5-1.7s.4-1.5.7-2.4c.3-.9.6-2 .9-3.1.2-.2.4-.3.5-.4.1-.1.2-.2.3-.2v-.1l-2.2.2z"/><path id="XMLID_51_" class="st0" d="M-241.5 391.2l1 .7.1 7.3v.8c0 .2 0 .4-.1.6 0 .2-.1.4-.2.5-.1.2-.2.3-.3.5-.2.2-.4.4-.6.5-.2.1-.5.2-.7.2l.1-.1s0-.1.1-.1v-.4c0-.1-.1-.1-.1-.2-.1-.1-.1-.1-.2-.1s-.2-.1-.3-.1-.2 0-.3.1c-.1 0-.2.1-.2.1l-.2.2c0 .1-.1.2-.1.3 0 .2 0 .3.1.4l.3.3c.1.1.2.1.4.2.1 0 .3.1.4.1.3 0 .5 0 .8-.1.2-.1.5-.2.7-.4.2-.2.4-.3.6-.5.2-.2.3-.4.5-.7l.3-.6c.1-.2.2-.4.2-.7.1-.2.1-.5.2-.8v-7.1l.9-.6v-.1l-3.4-.2z"/><path id="XMLID_48_" class="st0" d="M-230.3 397.7c-.1.4-.3.7-.5 1s-.5.5-.8.6c-.3.1-.6.2-.9.2s-.6-.1-.9-.2c-.3-.2-.6-.4-.8-.6-.2-.3-.4-.6-.5-1-.1-.4-.2-.8-.2-1.3s.1-.9.2-1.3.3-.7.5-1 .5-.5.8-.7.6-.2 1-.2.7.1 1 .2c.3.1.6.4.8.7s.4.6.5 1c.1.4.2.8.2 1.3-.2.4-.3.9-.4 1.3m1-3.3c-.2-.3-.4-.5-.6-.7-.2-.2-.5-.4-.7-.6-.3-.2-.6-.3-.9-.4-.3-.1-.6-.1-.9-.1-.5 0-1.1.1-1.5.3-.5.2-.9.5-1.2.8-.4.3-.7.7-.9 1.2-.2.4-.3.9-.3 1.4s.1 1 .3 1.4c.2.4.5.8.8 1.2.3.3.7.6 1.2.8s.9.3 1.5.3c.5 0 1 0 1.5-.3.4-.2.8-.5 1.2-.8.3-.3.6-.7.8-1.2.2-.4.3-.9.3-1.4 0-.4 0-.7-.1-1-.2-.3-.3-.6-.5-.9"/><path id="XMLID_47_" class="st0" d="M-222.2 393l.8.6v2.3h-3.6v-2.3l.8-.6v-.1h-2.8v.1l.8.6v5.6l-.8.5v.1h2.7v-.1l-.7-.6v-2.7h3.6v2.7l-.8.6v.1h2.7v-.1l-.8-.6v-5.6l.8-.6-2.7.1z"/><path id="XMLID_44_" class="st0" d="M-166.8 396.7l1.1-2.9 1.1 2.9h-2.2zm1.8-3.9h-1l-2.4 6.2-.8.7v.1h2.3v-.1l-.9-.7.7-1.8h2.6l.7 1.8-.9.7v.1h3v-.1l-.8-.7-2.5-6.2z"/><path id="XMLID_43_" class="st0" d="M-139.5 399.2h-2.8v-2.7h2.2l.5.8h.1v-2.1h-.1l-.5.8h-2.2v-2.4h2.8l.6.8h.1v-1.5h-5.4v.1l.8.6v5.6l-.8.6v.1h5.5v-1.5h-.1l-.7.8z"/><path id="XMLID_40_" class="st0" d="M-133.7 396.3h-.8v-2.8h1.1c.2 0 .4 0 .6.1.2.1.4.2.5.3.1.1.2.3.3.4.1.2.1.3.1.5 0 .5-.2.9-.5 1.1-.3.3-.7.4-1.3.4m3.5 3.3l-.2-.2c-.1-.1-.1-.2-.2-.3-.1-.1-.1-.2-.2-.2l-1.1-1.7c-.1-.2-.2-.4-.4-.5-.2-.1-.4-.2-.6-.2.3 0 .6-.1.9-.2.3-.1.5-.2.7-.4.2-.2.4-.3.5-.5s.2-.4.2-.7-.1-.5-.2-.7c-.1-.2-.3-.4-.5-.6s-.5-.3-.9-.4c-.3-.1-.7-.1-1.1-.1h-3.1v.1l.8.6v5.5l-.8.6v.1h2.8v-.1l-.8-.5v-2.3h.7c.1 0 .3 0 .3.1.1 0 .2.1.2.2l1.6 2.7h1.6v-.1c-.1-.1-.1-.2-.2-.2"/><path id="XMLID_39_" class="st0" d="M-149.8 395.8c.6-.6 1.1-1 1.5-1.4.4-.4.7-.7.9-.8l1-.5v-.2h-2.3v.1l.4.5c-.2.3-.5.5-.7.7l-.7.7c-.2.2-.5.4-.7.6l-.6.6c.8.8 1.7 1.8 2.7 3l-.3.5v.1h2.5v-.1l-.5-.5c-1.5-1.5-2.5-2.6-3.2-3.3"/><path id="XMLID_38_" class="st0" d="M-151 393.6l.8-.6v-.1h-2.8v.1l.8.6v5.6l-.8.5v.1h2.8v-.1l-.8-.6v-5.5"/><path id="XMLID_37_" class="st0" d="M-155.5 399.2h-2.6v-5.6l.9-.5v-.1h-2.8v.1l.8.5v5.6l-.8.5v.1h5.2v-1.5h-.1l-.6.9z"/><path id="XMLID_32_" class="st0" d="M-127.9 398.7c0 .1-.1.1-.2.1h-.2v-.3h.2c.1.1.2.1.2.2m.2 0c0-.2-.1-.3-.4-.3h-.4v1h.2v-.3h.2l.2.3h.2l-.2-.3c.1-.2.2-.2.2-.4m.4.2c0 .4-.3.8-.8.8s-.8-.4-.8-.8.3-.8.8-.8c.4 0 .8.3.8.8m.1 0c0-.5-.4-.9-.9-.9s-.9.4-.9.9.4.9.9.9.9-.4.9-.9"/></g></svg>