<svg id="Layer_1" xmlns="http://www.w3.org/2000/svg" viewBox="0 0 119.3 38"><style>.st0{fill-rule:evenodd;clip-rule:evenodd;fill:#e3438c}</style><g id="XMLID_784_"><path id="XMLID_966_" class="st0" d="M27.1 7.9H29v2.2h-1.9V7.9z"/><path id="XMLID_965_" class="st0" d="M27.1 12.6H29v13.2h-1.9V12.6z"/><path id="XMLID_964_" class="st0" d="M94.8 7.9h1.9v17.9h-1.9V7.9z"/><path id="XMLID_963_" class="st0" d="M39.7 12.6l-3.9 10.6L32 12.6h-2.2l4.8 13.2h2.5l4.8-13.2h-2.2z"/><path id="XMLID_962_" class="st0" d="M21.7 23.7c-.6 0-1.1-.6-1.1-1.3V7.9h-1.9v14.8c0 1.7 1.2 3 2.7 3h5v-2.1h-4.7v.1z"/><path id="XMLID_961_" class="st0" d="M58 14.7c-.6 0-1.1.6-1.1 1.3v9.8H55V15.7c0-1.7 1.2-3 2.7-3h2v2.1H58v-.1z"/><path id="XMLID_1353_" class="st0" d="M53.9 19.4V19c0-3.8-2.8-6.9-6.3-6.9s-6.3 3.1-6.3 6.9c0 3.8 2.8 6.9 6.3 6.9 2.9 0 5.4-2.2 6.1-5.3h-1.9c-.6 2-2.3 3.3-4.3 3.3-2.3 0-4.3-1.9-4.5-4.6h10.9v.1zm-10.6-2c.6-2.1 2.4-3.4 4.3-3.4s3.7 1.3 4.3 3.4h-8.6z"/><path id="XMLID_1268_" class="st0" d="M87.5 12c-2.3 0-4.3 1.3-5.4 3.3-1.1-2-3.1-3.3-5.4-3.3-2.3 0-4.3 1.3-5.4 3.3-1.1-2-3.1-3.3-5.4-3.3-3.5 0-6.4 3.1-6.4 7v11.3h1.9V24c1.1 1.2 2.7 2 4.5 2 2.3 0 4.3-1.3 5.4-3.3 1.1 2 3.1 3.3 5.4 3.3 2.3 0 4.3-1.3 5.4-3.3 1.1 2 3.1 3.3 5.4 3.3 3.5 0 6.4-3.1 6.4-7s-2.9-7-6.4-7zM65.8 23.8c-2.5 0-4.5-2.2-4.5-4.9s2-4.9 4.5-4.9 4.5 2.2 4.5 4.9c-.1 2.8-2.1 4.9-4.5 4.9zm10.8 0c-2.5 0-4.5-2.2-4.5-4.9s2-4.9 4.5-4.9 4.5 2.2 4.5 4.9c0 2.8-2 4.9-4.5 4.9zm10.9 0C85 23.8 83 21.7 83 19c0-2.7 2-4.9 4.5-4.9S92 16.3 92 19s-2 4.8-4.5 4.8z"/><path id="XMLID_898_" class="st0" d="M99.1 11c-.8 0-1.5-.7-1.5-1.7 0-.9.7-1.7 1.5-1.7s1.5.7 1.5 1.7-.7 1.7-1.5 1.7zm0-3c-.7 0-1.3.6-1.3 1.4 0 .8.6 1.4 1.3 1.4.7 0 1.3-.6 1.3-1.4 0-.8-.6-1.4-1.3-1.4zm-.7.5h.7c.4 0 .5.3.5.5 0 .3-.2.5-.5.5l.4.4.2.3h-.3l-.1-.2c-.2-.4-.3-.5-.5-.5h-.2v.8h-.3V8.5h.1zm.7.8c.2 0 .3-.1.3-.3 0-.2-.1-.3-.3-.3h-.4v.5h.4v.1z"/></g></svg>