<svg id="Layer_1" xmlns="http://www.w3.org/2000/svg" viewBox="0 0 119.3 38"><style>.st0{fill-rule:evenodd;clip-rule:evenodd;fill:#9b814e}</style><g id="XMLID_1321_"><path id="XMLID_828_" class="st0" d="M63.1 25.2h10.3V24h-8.5v-4h6.3v-1.3h-6.3v-3.6h8.5v-1.3H63.1z"/><path id="XMLID_827_" class="st0" d="M68.4 11.9l-1.3 1.6 4.3-1.6z"/><path id="XMLID_826_" class="st0" d="M90.5 24V13.8H89v11.4h10.2V24z"/><path id="XMLID_1349_" class="st0" d="M80 13.8l-5.8 11.4h1.9l1.5-2.9h3.5v-1.4h-2.8l2.8-5.5v.1-1.6H80v-.1zm1.1 8.5v-1.4h2.8l-2.8-5.4v-1.6h1.1L88 25.2h-1.9l-1.5-2.9h-3.5z"/><path id="XMLID_1346_" class="st0" d="M54.8 13.8h-5.6v11.4h1.7v-4.7h3.9v-1.4h-3.9v-3.9h3.9v-1.4zm2.9 6.7c1 1.5 3.4 4.7 3.4 4.7H59l-3.5-4.7h-.7v-1.4h1.4c.9 0 1.8-.2 2.2-.9.3-.5.3-1.2.2-1.7-.2-.8-1-1.3-2.3-1.3h-1.5v-1.4h1.6c2.5 0 3.9 1.3 4.1 3.3-.1.7-.3 2.6-2.8 3.4z"/><path id="XMLID_1343_" class="st0" d="M39.4 11.9c-4.7 0-7.8 3.3-7.8 7.3 0 4.2 3.5 7.1 7.8 7v-1.4h-.1c-3.2 0-5.9-2.6-5.8-5.7-.1-3.1 2.5-5.8 5.9-5.8v-1.4zm0 14.2v-1.4c3.2 0 5.9-2.6 5.9-5.7s-2.5-5.8-5.9-5.8v-1.4c4.6 0 7.7 3.3 7.7 7.3 0 4.2-3.4 7.1-7.7 7z"/><path id="XMLID_819_" class="st0" d="M27.4 17.8h1.2l2.2-4h-1.7z"/><path id="XMLID_818_" class="st0" d="M21.7 24V13.8h-1.6v11.4h10.2V24z"/></g></svg>