<svg id="Layer_1" xmlns="http://www.w3.org/2000/svg" viewBox="0 0 119.3 38"><style>.st0{fill:url(#XMLID_2_)}</style><linearGradient id="XMLID_2_" gradientUnits="userSpaceOnUse" x1="15.543" y1="19" x2="103.757" y2="19"><stop offset="0" stop-color="#00587f"/><stop offset="1" stop-color="#00587f"/></linearGradient><path id="XMLID_1287_" class="st0" d="M103.5 13.7h-1.4c-2 0-3.6.7-4.3 2.2-.3.6-.4 1.5-.4 2.4V26c0 .2.1.2.3.2h2.1c.2 0 .3-.1.3-.2v-6.5c0-.9 0-1.6.1-2 .1-1.1.8-1.6 2.3-1.6h1.1c.2 0 .3-.1.3-.3V14c-.1-.2-.2-.3-.4-.3m-10.7.5c-.7-.3-1.8-.5-3.1-.5h-.2c-.8 0-2 .1-3.1.3-.2 0-.3.1-.3.3v1.6c0 .2.1.3.3.2 1-.1 2-.2 2.7-.2h.1c1.1 0 2 .1 2.5.5s.8.9.8 2v.3c-.8-.2-1.8-.3-2.6-.3h-.2c-1.5 0-2.8.4-3.7 1.2-.7.6-1.1 1.6-1.1 2.8v.1c0 2.4 1.7 3.9 5.1 3.9h.6c1.3 0 2.6-.4 3.4-1 .9-.7 1.2-1.8 1.2-3.5v-3.5c0-2.4-1-3.5-2.4-4.2m-.3 7.6c0 .9 0 1.5-.4 1.8-.4.4-1 .6-1.8.6h-.4c-1.6 0-2.5-.6-2.5-1.8 0-.6.2-1.1.6-1.3.4-.3 1-.5 2-.5h.2c.8 0 1.6.1 2.3.3v.9zM82.9 24h-.3c-.8 0-1.3-.2-1.7-.5-.4-.4-.5-1.1-.5-2v-5.3h2.3c.2 0 .3-.1.3-.2v-1.7c0-.2-.1-.2-.3-.2h-2.3v-2.2c0-.2-.1-.2-.3-.2H78c-.2 0-.3.1-.3.2v9.9c0 1.7.3 2.8 1.1 3.6.7.7 1.8 1.1 3.4 1.1h.6c.2 0 .3-.1.3-.3v-1.8c.1-.3 0-.4-.2-.4m-10.6-5c-.7-.3-1.2-.4-1.7-.6-1-.4-1.3-.7-1.3-1.3 0-.9.9-1.2 2.3-1.2h.1c.8 0 1.8.1 3 .3.2 0 .3 0 .3-.2v-1.6c0-.2-.1-.3-.3-.3-.8-.2-2.2-.3-3-.3h-.2c-1.6 0-2.9.3-3.7 1-.7.6-1.1 1.4-1.1 2.5v.1c0 1 .3 1.7.9 2.3.5.5 1.3.8 2.2 1.2.6.2 1 .4 1.6.6 1.2.4 1.7.8 1.7 1.5 0 .9-.8 1.5-2.6 1.5h-.1c-1 0-2.2-.2-3.2-.5-.2-.1-.3 0-.3.2v1.6c0 .2 0 .3.3.4 1 .3 2.3.5 3.5.5h.1c3.2 0 5-1.4 5-3.8 0-.9-.3-1.7-.8-2.2-.6-.8-1.4-1.2-2.7-1.7m-8.2-5H62c-.2 0-.3.1-.3.2V26c0 .2.1.2.3.2h2.1c.2 0 .3-.1.3-.2V14.2c-.1-.2-.2-.2-.3-.2m-4.9 0h-2.1c-.2 0-.3.1-.3.3-.1 1.6-.4 3.4-.9 5-.5 1.7-1.1 3.3-1.7 4.5-.6-1.2-1.2-2.8-1.7-4.5-.5-1.6-.8-3.5-.9-5.1 0-.2-.1-.3-.4-.3H49c-.2 0-.3.1-.3.3.3 4.2 1.6 7.5 3.9 11.8.1.2.2.2.4.2h2.3c.2 0 .3-.1.4-.2 1.5-2.8 3.7-7.5 3.9-11.8-.1-.2-.1-.2-.4-.2m-17.4-.3h-.3c-2.7 0-4.4.8-5.1 3-.3.8-.4 1.8-.4 3.4 0 1.6.1 2.6.4 3.4.6 2.1 2.3 3 5.1 3h.3c2.7 0 4.4-.9 5.1-3 .3-.8.4-1.8.4-3.4 0-1.6-.1-2.6-.4-3.4-.6-2.1-2.3-3-5.1-3m2.7 8.2c-.2 2-1.2 2.3-2.8 2.3h-.1c-1.6 0-2.6-.3-2.8-2.3-.1-.6-.1-1.1-.1-1.8s0-1.2.1-1.8c.2-2 1.2-2.3 2.8-2.3h.1c1.6 0 2.6.3 2.8 2.3.1.6.1 1.1.1 1.8s0 1.2-.1 1.8M29 13.7h-.6c-1.8 0-3 .5-3.6 1.2-.6-.7-1.9-1.2-3.7-1.2h-.7c-2.1 0-3.8.7-4.4 2.2-.3.6-.4 1.5-.4 2.4V26c0 .2.1.3.3.3H18c.2 0 .3-.1.3-.3v-6.4c0-.9 0-1.6.1-2 .1-1.1.9-1.6 2.4-1.6h.2c1.5 0 2.3.5 2.5 1.6 0 .4.1 1.1.1 2V26c0 .2.1.3.3.3H26c.2 0 .3-.1.3-.3v-6.4c0-.9 0-1.6.1-2 .1-1.1.9-1.6 2.5-1.6h.2c1.5 0 2.3.5 2.4 1.6 0 .4.1 1.1.1 2V26c0 .2.1.3.3.3H34c.2 0 .3-.1.3-.3v-7.7c0-.9-.1-1.8-.4-2.4-1.1-1.5-2.8-2.2-4.9-2.2"/></svg>