<svg id="Layer_1" xmlns="http://www.w3.org/2000/svg" viewBox="-245 378 119.3 38"><style>.st0{fill:#ff6a0a}</style><g id="XMLID_1312_"><g id="XMLID_1313_"><g id="XMLID_1314_"><path id="XMLID_1320_" class="st0" d="M-215.5 392.7c-4.4 0-6.5 2.8-6.5 5.5v5.9h2.8v-5.9c0-1.7 1-4.4 3.7-4.4s3.7 2.7 3.7 4.4v5.9h2.8v-5.9c0-2.7-2-5.5-6.5-5.5z"/><path id="XMLID_1319_" class="st0" d="M-173.4 398.9c0 1.7-1 4.4-3.7 4.4s-3.7-2.7-3.7-4.4V393h-2.8v5.9c0 2.7 2 5.5 6.5 5.5 4.4 0 6.5-2.8 6.5-5.5V393h-2.8v5.9z"/><path id="XMLID_1318_" class="st0" d="M-200.2 392.9c-2.7-.1-6.8 1.7-6.7 5.9.1 4.1 4.1 5.9 6.9 5.5.9-.1 1.7-.5 2.3-1v-1c-.4.3-1.8.6-2.8.6-3.2-.2-3.5-3.3-3.5-4.5 0-1.9.9-4.6 3.7-4.5 2.9.1 3.4 3.3 3.4 4.5v5.7h2.8v-5.7c0-1.9-1.6-5.4-6.1-5.5z"/><path id="XMLID_1317_" class="st0" d="M-187.2 404.7c-.6-.3-1.3-1.1-1.3-3.7.1-2.8 0-6.3 0-6.3h2.6V393h-2.6v-5h-2.8v12.4c0 4.5 2.2 5.1 3.5 5.4 1.2.3 2.2.1 2.6-.1v-1c-.2.2-1.4.3-2 0z"/><path id="XMLID_1316_" class="st0" d="M-164.1 392.9c-2.5.3-4 2.2-4 5v6.3h2.8v-7.3c0-.6.5-2.3 1.6-2.7 1-.3 2 0 2 0V393s-.6-.3-2.4-.1z"/><path id="XMLID_1315_" class="st0" d="M-154.8 392.9c-2.7-.1-6.8 1.7-6.7 5.9.1 4.1 4.1 5.9 6.9 5.5.9-.1 1.7-.5 2.3-1v-1c-.4.3-1.8.6-2.8.6-3.2-.2-3.5-3.3-3.5-4.5 0-1.9.9-4.6 3.7-4.5 2.9.1 3.4 3.3 3.4 4.5v5.7h2.8v-5.7c.1-1.9-1.5-5.4-6.1-5.5z"/></g></g></g></svg>