<svg id="Layer_1" xmlns="http://www.w3.org/2000/svg" viewBox="0 0 119.3 38"><style>.st0{fill:#da2429}</style><path id="XMLID_1290_" class="st0" d="M80.1 9.1h-1.7c-.6 0-1.1.5-1.1 1.1v17.4c0 .6.5 1.1 1.1 1.1h1.7c.6 0 1.1-.5 1.1-1.1V10.3c0-.6-.5-1.2-1.1-1.2zm3.9 3.1h11.5c.5 0 .9-.4.9-.9V9.8c0-.5-.4-1-1-1 0 0-11.1 1.1-11.5 1.1-.4 0-.6.4-.6.7v.8c.1.5.3.8.7.8zm-8.3 2.3h-2.5v-4.3c0-.6-.5-1.1-1.1-1.1h-1.6c-.6 0-1.1.5-1.1 1.1v4.3h-.8c-.4 0-.8.4-.8.8v1.2c0 .4.3.8.8.8h.8v7c0 2.4 1.8 4.6 4.7 4.6h1.5c.5 0 .9-.4.9-.9v-1.3c0-.5-.4-.9-.9-.9h-.2c-1.4 0-2.1-.9-2.1-2.1v-6.5h2.5c.4 0 .8-.3.8-.8v-1.2c-.1-.3-.4-.7-.9-.7zM47.2 14c-4.6 0-7.2 3.6-7.2 7.4 0 4.1 2.8 7.6 7.3 7.6 3.1 0 6.1-1.6 6.7-4.3.1-.4-.2-.8-.7-.8h-2.2c-.4 0-.7.2-.9.5-.6.9-1.5 1.4-2.9 1.4-1.9 0-3.2-1.5-3.3-3.2h9.3c.9 0 1.2-.5 1.2-1.3-.1-3.5-2.3-7.3-7.3-7.3zm-3.3 5.9c.2-1.6 1.6-2.9 3.3-2.9 1.7 0 3.2 1.2 3.3 2.9h-6.6zm52.9 1.6c0-3.7-2.2-7.4-7.2-7.4-4.6 0-7.2 3.6-7.2 7.4 0 4.1 2.8 7.6 7.3 7.6 3.1 0 6.1-1.6 6.7-4.3.1-.4-.2-.8-.7-.8h-2.2c-.4 0-.7.2-.9.5-.6.9-1.5 1.4-2.9 1.4-1.9 0-3.2-1.5-3.3-3.2h9.3c.7 0 1.1-.4 1.1-1.2zm-10.5-1.6c.2-1.6 1.6-2.9 3.3-2.9 1.7 0 3.2 1.2 3.3 2.9h-6.6zm-19.2-8.5v-1.3c0-.5-.4-.8-.8-.8H36.1c-.7 0-1.2.6-1.2 1.2l.1 11.9s-6.5-11.7-6.8-12.3c-.3-.6-1-1.1-2-1.1h-2.5c-.7 0-1.2.6-1.2 1.2v17.4c0 .7.6 1.2 1.2 1.2h1.6c.7 0 1.2-.6 1.2-1.2l-.1-12.2s6.6 11.9 6.8 12.3c.4.6 1 1.1 1.9 1.1h2.3c.7 0 1.2-.6 1.2-1.2V12.3h27.5c.6 0 1-.4 1-.9zm-2.9 9c-.9-.2-3-.8-3.5-.9-.8-.2-1.6-.5-1.6-1.2 0-1.1 1-1.4 2.2-1.4 1.3 0 2.3.5 2.6 1.3.2.4.5.5.9.5h1.8c.3 0 .6-.3.6-.6 0-2.1-2.5-4-6-4-3.7 0-6.1 1.7-6.1 4.5 0 2.1 1.7 3.4 3.7 3.9.9.2 2.5.6 3.3.9.8.2 1.6.5 1.6 1.2 0 1.1-1.2 1.5-2.5 1.5-1.2 0-2.5-.6-2.8-1.4 0-.6-.4-.7-.9-.7h-1.8c-.3 0-.7.3-.7.7v.3c0 2 2.7 4.2 6.5 4.2 2.7 0 6.4-1.1 6.4-4.7-.1-2.1-1.5-3.6-3.7-4.1z"/></svg>