<svg id="Layer_1" xmlns="http://www.w3.org/2000/svg" viewBox="-245 378 119.3 38"><style>.st0{fill:#ed1c24}</style><g id="XMLID_1291_"><path id="XMLID_1310_" class="st0" d="M-197.3 397.7h-4.2l.5-7.4-2.8 7.4h-3.9l6.2-16.7h4.2l-.5 7.5 2.8-7.5h4z"/><path id="XMLID_1309_" class="st0" d="M-196.8 397.7l6.3-16.7h3.9l-6.2 16.7z"/><path id="XMLID_1307_" class="st0" d="M-208.2 391.9c-5.5 6.5-10.7 15.1-6.1 19 4.4 3.8 10 1.6 13.8.1s45.6-19.7 45.6-19.7c.4-.2.3-.5-.2-.3-.2 0-45.5 12.3-45.5 12.3-5.8 1.6-12.3-1.9-7.6-11.4z"/><path id="XMLID_1304_" class="st0" d="M-166.2 381c-.5 0-.9.3-.9.8s.4.8.9.8.9-.3.9-.8-.4-.8-.9-.8zm0 1.4c-.3 0-.6-.3-.6-.6s.3-.6.6-.6.6.3.6.6-.2.6-.6.6z"/><path id="XMLID_1300_" class="st0" d="M-166 381.9c.1 0 .2-.1.2-.2 0-.2-.1-.3-.4-.3h-.3v.9h.2v-.4l.2.4h.3l-.2-.4zm-.2-.2l-.1-.2h.1c.1 0 .1 0 .1.1s0 .1-.1.1z"/><path id="XMLID_1294_" class="st0" d="M-168.8 383.8l1.1-2.8h-12l-4.1 5 1.8-5h-4l-6.2 16.7h3.9l2.6-7 .2 7h12.1l1.1-3.2h-4.6l1.5-4h3.8l1.2-3.1h-3.8l1.3-3.5h4.1v-.1zm-12.7 12.8l-.3-8.7 6-6.5-5.7 15.2z"/></g></svg>