<svg id="Layer_1" xmlns="http://www.w3.org/2000/svg" viewBox="0 0 119.3 38"><style>.st0{fill-rule:evenodd;clip-rule:evenodd;fill:#ce1f43}</style><path id="XMLID_1272_" class="st0" d="M34.4 13h3c.2 0 .3.1.3.3v11.4c0 .2-.1.3-.3.3h-3c-.2 0-.3-.1-.3-.3V13.3c0-.2.2-.3.3-.3m-16.8.1H22c.2 0 .8.1 1.2.7l5.6 8.6v-9c0-.2.1-.3.3-.3h2.5c.2 0 .3.1.3.3v11.4c0 .2-.1.3-.3.3h-4.3c-.2 0-1 0-1.4-.7L20.5 16v8.8c0 .2-.1.3-.3.3h-2.6c-.2 0-.3-.1-.3-.3V13.4c0-.2.1-.3.3-.3zm70.1 0h4.5c.2 0 .8.1 1.2.7l5.6 8.6v-9c0-.2.1-.3.3-.3h2.5c.2 0 .3.1.3.3v11.4c0 .2-.1.3-.3.3h-4.3c-.2 0-1 0-1.4-.7L90.7 16v8.8c0 .2-.1.3-.3.3h-2.6c-.2 0-.3-.1-.3-.3V13.4c-.1-.2 0-.3.2-.3zm-12.5 7H80l-2-4.4h-.9l-1.9 4.4zm5.9 2.5h-7l-1 2.1c-.1.2-.3.3-.4.3h-3c-.2 0-.2-.1-.2-.3l5.1-11.4c.1-.2.3-.3.4-.3h5c.2 0 .4.1.4.3l5.1 11.4c.1.2 0 .3-.2.3h-3c-.2 0-.4-.1-.4-.3l-.8-2.1zm-28.4-6.9H44c-.2 0-.4.2-.4.4v.7c0 .2.2.4.4.4 0 0 7.2.7 7.3.7 1.3.3 2.3 1.5 2.3 2.8V22c0 1.6-.8 3-3.7 3h-9.4c-.1 0-.2-.1-.2-.2v-2.2c0-.1.1-.2.2-.2h9.2c.2 0 .4-.2.4-.4v-1c0-.2-.2-.4-.4-.4L43 20h-.1c-1.5-.1-2.7-1.1-2.7-2.7V16c0-1.6 1.3-3 2.9-3h9.6c.1 0 .2.1.2.2v2.1c.1.3 0 .4-.2.4zm15.2 0h-8.8c-.2 0-.4.2-.4.4v.7c0 .2.2.4.4.4 0 0 7.2.7 7.3.7 1.3.3 2.3 1.5 2.3 2.8V22c0 1.6-.8 3-3.7 3h-9.4c-.1 0-.2-.1-.2-.2v-2.2c0-.1.1-.2.2-.2h9.2c.2 0 .4-.2.4-.4v-1c0-.2-.2-.4-.4-.4l-6.7-.6H58c-1.5-.1-2.7-1.1-2.7-2.7V16c0-1.6 1.3-3 2.9-3h9.6c.1 0 .2.1.2.2v2.1c.2.3.1.4-.1.4z"/></svg>