<svg id="Layer_1" xmlns="http://www.w3.org/2000/svg" viewBox="0 0 119.3 38"><style>.st0{fill:#009bde}.st1{fill:#002f87}</style><g id="XMLID_1391_"><g id="XMLID_1392_"><g id="XMLID_1393_"><g id="XMLID_1394_"><path id="XMLID_1406_" class="st0" d="M72.9 8.9H67c-.4 0-.7.3-.8.7l-2.4 15.2c0 .3.2.6.5.6h3c.3 0 .5-.2.6-.5l.7-4.3c.1-.4.4-.7.8-.7h1.9c3.9 0 6.1-1.9 6.7-5.6.3-1.6 0-2.9-.8-3.8-.8-1.1-2.3-1.6-4.3-1.6zm.7 5.5c-.3 2.1-1.9 2.1-3.5 2.1h-.9l.6-4c0-.2.2-.4.5-.4h.4c1.1 0 2.1 0 2.6.6.4.4.4 1 .3 1.7z"/><path id="XMLID_1403_" class="st1" d="M30.7 8.9h-5.9c-.4 0-.7.3-.8.7l-2.4 15.2c0 .3.2.6.5.6h2.8c.4 0 .7-.3.8-.7l.6-4.1c.1-.4.4-.7.8-.7H29c3.9 0 6.1-1.9 6.7-5.6.3-1.6 0-2.9-.8-3.8-.7-1.1-2.2-1.6-4.2-1.6zm.7 5.5c-.3 2.1-1.9 2.1-3.5 2.1H27l.6-4c0-.2.2-.4.5-.4h.4c1.1 0 2.1 0 2.6.6.4.4.4 1 .3 1.7z"/><path id="XMLID_1400_" class="st1" d="M48.4 14.3h-2.8c-.2 0-.4.2-.5.4l-.1.8-.2-.3c-.6-.9-2-1.2-3.3-1.2-3.1 0-5.8 2.4-6.3 5.7-.3 1.7.1 3.2 1.1 4.4.9 1 2.1 1.4 3.6 1.4 2.5 0 3.9-1.6 3.9-1.6l-.1.8c0 .3.2.6.5.6h2.6c.4 0 .7-.3.8-.7l1.5-9.7c-.1-.3-.4-.6-.7-.6zm-3.9 5.6c-.3 1.6-1.6 2.7-3.2 2.7-.8 0-1.5-.3-1.9-.8-.4-.5-.6-1.2-.4-2 .3-1.6 1.6-2.7 3.2-2.7.8 0 1.5.3 1.9.8.3.5.5 1.2.4 2z"/><path id="XMLID_1397_" class="st0" d="M90.6 14.3h-2.8c-.2 0-.4.2-.5.4l-.1.8-.2-.2c-.6-.9-2-1.2-3.3-1.2-3.1 0-5.8 2.4-6.3 5.7-.3 1.7.1 3.2 1.1 4.4.9 1 2.1 1.4 3.6 1.4 2.5 0 3.9-1.6 3.9-1.6l-.1.8c0 .3.2.6.5.6H89c.4 0 .7-.3.8-.7l1.5-9.7c-.1-.4-.4-.7-.7-.7zm-3.9 5.6c-.3 1.6-1.6 2.7-3.2 2.7-.8 0-1.5-.3-1.9-.8-.4-.5-.6-1.2-.4-2 .3-1.6 1.6-2.7 3.2-2.7.8 0 1.5.3 1.9.8.3.5.5 1.2.4 2z"/><path id="XMLID_1164_" class="st1" d="M63.5 14.3h-2.8c-.3 0-.5.1-.7.4l-3.9 5.8-1.7-5.6c-.1-.3-.4-.6-.8-.6h-2.8c-.3 0-.6.3-.5.7l3.1 9.2-2.9 4.2c-.2.3 0 .8.4.8h2.8c.3 0 .5-.1.7-.4l9.5-13.7c.3-.3 0-.8-.4-.8z"/><path id="XMLID_1163_" class="st0" d="M94 9.3l-2.4 15.4c0 .3.2.6.5.6h2.4c.4 0 .7-.3.8-.7l2.4-15.2c0-.3-.2-.6-.5-.6h-2.7c-.3.1-.5.2-.5.5z"/></g></g></g></g></svg>