<svg id="Layer_1" xmlns="http://www.w3.org/2000/svg" viewBox="-245 378 119.3 38"><style>.st0{fill:#007edb}</style><g id="XMLID_1414_"><g id="XMLID_1416_"><path id="XMLID_1425_" class="st0" d="M-242 392.2v9.6h2.6v-2.9h2.4c5.1 0 7.6-1.6 7.6-3.4 0-1.9-2.8-3.2-7.4-3.2l-5.2-.1zm2.6 5.6v-4.5h2.1c2.1 0 5 .4 5 2.1 0 1.2-.9 2.4-5.3 2.4h-1.8z"/><path id="XMLID_1424_" class="st0" d="M-214.3 401.8v-1.2h-6.5c-1.4 0-1.8-.6-1.8-1.7v-1.4h7.6v-1.2h-7.6v-2.9h8v-1.2h-10.7v6.7c0 1.8.7 2.8 3.2 2.8l7.8.1z"/><path id="XMLID_1423_" class="st0" d="M-197.5 392.2h-2.6v8.1c-.7.3-1.7.5-3.1.5-2 0-4-.5-4-2.3v-6.3h-2.6v6.5c0 2.6 2.6 3.4 5.5 3.4 2.8 0 5-.6 6.9-1.4v-8.5h-.1z"/><path id="XMLID_1422_" class="st0" d="M-190.1 397c0-2.7 2.3-3.9 5-3.9 2.3 0 4 .7 5.6 1.2v-1.6c-1.7-.5-3.4-.8-5.6-.8-4.4 0-8 2-8 5.1 0 3.3 3.6 5.1 8 5.1 2.2 0 4.5-.5 5.9-.8v-3.8h-2.6v2.8c-1 .3-1.6.6-3.1.6-3 0-5.2-1.5-5.2-3.9"/><path id="XMLID_1421_" class="st0" d="M-163.5 401.8v-1.2h-6.5c-1.4 0-1.8-.6-1.8-1.7v-1.4h7.6v-1.2h-7.6v-2.9h8v-1.2h-10.6v6.7c0 1.8.7 2.8 3.2 2.8l7.7.1z"/><path id="XMLID_1418_" class="st0" d="M-152 391.9c-4.4 0-8 2.1-8 5.2 0 3.2 3.6 5 8 5s8-1.8 8-5c0-3.1-3.6-5.2-8-5.2m0 9.1c-3 0-5-1.5-5-3.9 0-2.6 2.3-4 5-4 2.8 0 5 1.3 5 4 0 2.4-2 3.9-5 3.9"/><path id="XMLID_1417_" class="st0" d="M-141.9 393.6h5.3v8.2h2.6v-8.2h5.3v-1.4h-13.2z"/></g></g></svg>