<svg id="Layer_1" xmlns="http://www.w3.org/2000/svg" viewBox="0 0 119.3 38"><style>.st0{fill:#827f7a}</style><g id="XMLID_1415_"><path id="XMLID_1084_" class="st0" d="M82.8 15.4v-3.7l-3-.2c-2 0-3.9.6-5.6 1.8-1.8 1.3-2.8 3.3-2.8 5.8 0 2.2.7 3.9 2.1 5.2 1.4 1.3 3.4 2 5.8 2.1l4.1-.7v-4.4c0-.3 0-.5.1-.6l.4-.4 1.3-.6v-.3l-2.8.2-3.1-.2v.3l1.3.5.9.4.1.5v4l-2.5.4c-1.6-.1-2.9-.6-3.9-1.8-1-1.2-1.5-2.7-1.5-4.7 0-2.2.6-4 1.6-5.1 1.1-1.1 2.4-1.6 4-1.6l1.5.2c.4 0 .7.1.8.3l.6 1 .4 1.5h.2"/><path id="XMLID_1083_" class="st0" d="M50.9 13.8c0-.4.1-.6.2-.8.2-.2.6-.3 1.2-.5l.9-.4v-.3l-3.4.2-3.1-.2v.2l1.6.6.5.7.1 1.9v6.2c0 1.7.5 2.9 1.5 3.8 1 .8 2.2 1.2 3.9 1.2 1.5 0 2.8-.5 3.8-1.4 1-.9 1.4-2.4 1.5-4.6v-7.1c0-.4.3-.7.9-.9l.9-.4v-.3l-2.5.2-2.7-.2v.3l1.2.4.7.3.2.5.2 7.9c-.1 2.7-1.2 4.1-3.7 4.1-1.7 0-2.8-.4-3.4-1.3-.5-.8-.7-2-.7-3.5.1-3.2.1-5.5.2-6.6"/><path id="XMLID_1082_" class="st0" d="M45.4 15.6c0-1.4-.5-2.4-1.5-2.9-1-.6-2-.9-3-.9l-4.2.2-2.4-.2v.2l1.9.6.3.1.2.4v10l-.1 1.5-.6.6-1.8.6v.2l3.5-.1 3.1.1v-.2l-1.9-.7-.2-.2-.1-.4-.2-2.6v-9.2h1.8c.9 0 1.6.2 2.2.7.5.4.9 1.2.9 2.3 0 .9-.3 1.6-.9 2.1-.6.5-1.4.8-2.5.9l-1.5-.1v.7l2 .1 1.7-.2 1.6-.6 1.1-1.2c.4-.5.6-1.1.6-1.8"/><path id="XMLID_1081_" class="st0" d="M65 13.2v11.5l-.5.5-1.7.6v.2H66l3.3.1v-.2l-1.6-.6-.5-.5c-.2-.3-.2-.8-.2-1.6l-.1-4.1.1-4.1v-1.9l.2-.4.2-.1 1.8-.6v-.3l-3.2.2-3.3-.2v.3l1.8.6c.2 0 .4.3.5.6"/></g></svg>