<svg id="Layer_1" xmlns="http://www.w3.org/2000/svg" viewBox="0 0 119.3 38"><style>.st0,.st1{fill:#ed2e3b}.st0{stroke:#ed2e3b;stroke-width:3.949374e-2;stroke-miterlimit:2.6131}.st1{fill-rule:evenodd;clip-rule:evenodd}</style><g id="XMLID_905_"><path id="XMLID_1213_" class="st0" d="M96.2 11.2c.1 0 .7 0 .7.6 0 .3-.2.5-.5.5.1 0 .2.1.3.2l.4.9h-.3l-.4-.8c-.1-.1-.1-.2-.3-.2h-.3v1h-.3v-2.3h.7v.1zm-.3.9h.3c.3 0 .5-.2.5-.4 0-.1 0-.4-.4-.4H96v.8h-.1zm.4-1.7c1.1 0 1.9.9 1.9 1.9s-.9 1.9-1.9 1.9c-1.1 0-1.9-.9-1.9-1.9s.8-1.9 1.9-1.9zm0 3.5c.9 0 1.7-.7 1.7-1.7 0-.9-.7-1.7-1.7-1.7-.9 0-1.7.7-1.7 1.7s.7 1.7 1.7 1.7z"/><path id="XMLID_906_" class="st1" d="M35.8 21h3.9s-.2-1.8-1.9-1.8c-1.8-.1-2 1.8-2 1.8zm2-4.1c5.3 0 5 5.1 5 5.1v.8h-7.1c0 1.2 1 2.2 2.3 2.2 1.3 0 2-1.3 2-1.3l2.5 1.2c-1.2 1.8-2.7 2.5-4.5 2.5-5.5 0-5.6-4.6-5.6-5.1s.1-5.4 5.4-5.4zm11.7 7.7c-.2 0-2.2 0-2.2-2.5s2.2-2.6 2.2-2.6 2.5.1 2.5 2.5c0 2.5-2.3 2.6-2.5 2.6zm2.4-14v7.5s-1.5-1.2-3.3-1.2c-1.7 0-4.7 1.2-4.7 5.1 0 3.8 2.5 5.3 4.6 5.3 2.1 0 3.3-1.4 3.3-1.4v1.3H55V10.6h-3.1zm20.8 6.8h3.1V23s.1 1.9 1.9 1.9c1.8 0 1.7-1.9 1.7-1.9v-5.5h3.2v5.7s.4 4.5-4.8 4.5-5.1-3.9-5.1-4.6v-5.7zm11.8-6.8h3.1v16.6h-3.1V10.6zm5.2 0h3.1v16.6h-3.1V10.6zM66.4 24.4h-2.9V14H65s2.1-.2 2.1 1.7-1.7 1.7-1.7 1.7h-1v2.8h1.9c.5 0 2.1.2 2.1 2.1.1 1.8-2 2.1-2 2.1zm2.7-5.9s1.4-1.1 1.4-3.2-1.5-4-4.8-4h-5.5v15.9H67s4.8-.1 4.8-4.4c0-2.6-1-3.6-2.7-4.3zm-48-7.6v16.2h3.3V14h1.5s2.4-.1 2.4 2.1-2.1 2.1-2.1 2.1h-.8v3.7l3.3 5.2h3.8L28 20.5s3.8-.3 3.8-4.4c0-4.1-2.8-5.2-6.6-5.2h-4.1z"/></g></svg>