<svg id="Layer_1" xmlns="http://www.w3.org/2000/svg" viewBox="0 0 119.3 38"><style>.st0{fill:#ee2d43}</style><g id="XMLID_1271_"><path id="XMLID_362_" class="st0" d="M15.4 9.8c0 2.5 4.2 5.3 4.2 8.1 0 0 0 .3-.1.6 3.9.8 6.7 2.8 6.7 5.1 0 3.1-4.9 5.6-11.1 5.6C8.9 29.2 4 26.7 4 23.7c0-2.3 3-4.1 6.6-5.1 0 1.3 4.1 5.3 4.2 6.9v.5c.9-.5.9-1.9.9-1.9 0-3.5-4-5.1-4-8.5 0-1.3.6-2.3 1.2-2.6v1c0 2.5 4.3 5.3 4.3 7.6v.7c1-.4 1-2.3 1-2.3 0-3.1-4-4.9-4-8.5 0-1.3.6-2.3 1.2-2.6v.9z"/><path id="XMLID_361_" class="st0" d="M35 28.2c-2.1 0-3.6-.6-3.6-.6v-3.7h.5c.3 2 1.7 3.5 3.4 3.5s2.9-.9 2.9-2.4c0-1.6-1.6-2.3-2.6-2.8l-1.6-.9c-1.4-.7-2.6-1.9-2.6-3.6 0-2.1 1.5-3.8 4.4-3.8 2 0 3.6.7 3.6.7v3.3h-.5c-.3-1.8-1.3-3.2-3.3-3.2-1.5 0-2.3 1-2.3 2.1 0 1.4.9 2 2 2.5l1.5.8c1.4.7 3.1 1.9 3.1 3.9 0 2.5-1.7 4.2-4.9 4.2"/><path id="XMLID_1285_" class="st0" d="M44.7 24.1c-.4.2-1.1.5-1.1 1.5 0 .5.3 1.3 1.3 1.3.5 0 1.2-.3 1.6-.7v-2.9l-1.8.8zm-.8 4c-1.3 0-2.2-.9-2.2-2.2 0-.9.7-1.7 2.2-2.2l2.6-1v-.8c0-1.2-.6-2-1.4-2-.6 0-1.2.3-1.5.8-.1.2-.1.4-.1.6 0 .3.2.7.2.7l-1.3.6c-.2-.3-.3-.7-.3-1.1v-.2c.1-.7.7-1.2 1.5-1.7s1.5-.6 2-.6c2.4 0 2.9 2 2.9 2.6v4.1c0 .6.1 1.1.6 1.1.2 0 .3 0 .5-.1l.5-.2v.6l-2.7 1c-.4-.3-.6-.8-.7-1.3-.7.6-1.8 1.3-2.8 1.3"/><path id="XMLID_358_" class="st0" d="M50.6 27.9v-.5l.6-.1c.4-.1.7-.4.7-.8v-5.2c0-.5-.2-.7-.6-.7-.1 0-.3 0-.4.1l-.3.1v-.6l2.8-1.2h.4v1.5c.9-1 1.9-1.5 2.8-1.5 2 0 2.9 1.4 2.9 3.1v4.5c0 .4.3.7.7.8l.7.1v.5h-4.6v-.5l.6-.1c.4-.1.7-.4.7-.8v-4.4c0-.6-.2-1.9-1.7-1.9-.9 0-1.6.5-2 .9v5.4c0 .4.3.7.7.8l.6.1v.5h-4.6z"/><path id="XMLID_357_" class="st0" d="M67.5 20.2h-2.7v4.9c0 1.1.6 1.7 1.4 1.7.3 0 .9-.1 1.3-.4l.2.5L66 28s-.3.1-.5.1c-1.7 0-2.6-1-2.6-3.1v-4.7h-1.4v-.5s2.1-.8 3-2.9h.4v2.5H68l-.5.8z"/><path id="XMLID_1280_" class="st0" d="M71.6 24.1c-.4.2-1.1.5-1.1 1.5 0 .5.3 1.3 1.3 1.3.5 0 1.2-.3 1.6-.7v-2.9l-1.8.8zm-.8 4c-1.3 0-2.2-.9-2.2-2.2 0-.9.7-1.7 2.2-2.2l2.6-1v-.8c0-1.2-.6-2-1.4-2-.6 0-1.2.3-1.5.8-.1.2-.1.4-.1.6 0 .3.2.7.2.7l-1.3.6c-.2-.3-.3-.7-.3-1.1v-.2c.1-.7.7-1.2 1.5-1.7s1.5-.6 2-.6c2.4 0 2.9 2 2.9 2.6v4.1c0 .6.1 1.1.6 1.1.2 0 .3 0 .5-.1l.5-.2v.6l-2.7 1c-.4-.3-.6-.8-.7-1.3-.8.6-1.9 1.3-2.8 1.3"/><path id="XMLID_354_" class="st0" d="M77.4 27.9v-.5l.6-.1c.4-.1.7-.4.7-.8v-5.2c0-.5-.2-.7-.6-.7-.1 0-.3 0-.4.1l-.3.1v-.6l2.8-1.2h.4v1.5c.9-1 1.9-1.5 2.7-1.5 2 0 2.9 1.4 2.9 3.1v4.5c0 .4.3.7.7.8l.7.1v.5H83v-.5l.6-.1c.4-.1.7-.4.7-.8v-4.4c0-.6-.2-1.9-1.7-1.9-.9 0-1.6.5-2 .9v5.4c0 .4.3.7.7.8l.6.1v.5h-4.5z"/><path id="XMLID_1276_" class="st0" d="M93.4 19.8c-1.4 0-2.8.9-2.8 3.5 0 2.2 1.1 3.5 2.8 3.5 1 0 1.7-.6 1.8-.9v-5.1c-.2-.6-1-1-1.8-1m-.8 8.3c-1.8 0-4-1.4-4-4.4 0-2.6 2-4.8 4.7-4.8.9 0 1.5.2 2 .4v-4.5c0-.5-.3-.6-.6-.6-.2 0-.4 0-.5.1l-.4.1v-.6l3-1.3h.4v12.9c0 .7.1 1.2.6 1.2.2 0 .3 0 .5-.1l.5-.2v.6l-2.7 1c-.4-.3-.6-.8-.7-1.3-.6.8-1.5 1.5-2.8 1.5"/><path id="XMLID_1273_" class="st0" d="M105.5 22c0-1.5-.8-2.2-1.8-2.2-1.1 0-1.9.7-2.1 2.2h3.9zm-4 .8c0 2.7 1.5 4 3.3 4 .9 0 1.8-.4 2.5-.9v.8c-.8.7-2 1.3-3.4 1.3-3 0-4.4-2.3-4.4-4.5 0-2.6 1.9-4.6 4.4-4.6 2 0 3.6 1.5 3.6 3.6v.3h-6z"/><path id="XMLID_349_" class="st0" d="M108.7 27.9v-.5l.6-.1c.4-.1.7-.4.7-.8v-5.2c0-.5-.2-.7-.6-.7-.1 0-.3 0-.4.1l-.3.1v-.6l2.7-1.2h.4v1.9c.7-1.4 1.5-1.9 2.5-1.9.8 0 1 .2 1 .2v2.1h-.4c-.1-.6-.5-.8-1-.8-.6 0-1.4.2-1.9 1.3v4.8c0 .4.4.7.8.8l.9.1v.5h-5z"/></g></svg>