<svg id="Layer_1" xmlns="http://www.w3.org/2000/svg" viewBox="0 0 119.3 38"><style>.st0{fill:#094932}.st1{fill:#fff}.st2{fill:#f9e444}</style><path id="XMLID_192_" class="st0" d="M38.5 11h15.2c2.2 0 2.9.4 3.3.7.2.1.2.2.2 0s0-.3.1-.5c0-.2 0-.2.2-.2h27.8c.2 0 .3 0 .3.3.1.8.2 1.7.4 2.5 0 .3 0 .3.2.1 1.6-1.9 3.8-3.1 5.7-2.9.3 0 .2 0 .3-.2l.9-2.7c.1-.4.1-.4.3 0 1.5 2.4 2.9 4.7 4.4 7.1.4.7.5.6-.2.9-2.5 1-4.8 2-7.3 3-.6.2-.7.3-.5-.3.1-.2.2-.5.1-.5 0 0-.1 0-.3.2-1.5 1.7-2.5 3.4-3.2 5.1-.1.4-.2.3.2.3h1.5c.6 0 .8.3.8.9v1.6c0 .8-.4 1.1-1 1.1h-14c-.5 0-.5 0-.4-.4.1-.5.2-1 .2-1.5 0-.2.1-.2-.1-.2h-.1c-.1 0-.2.1-.2.2-.3.5-.5 1-.8 1.5s-.2.5-.8.5H55.9c-.6 0-.5 0-.5-.6 0-.3.1-.5.1-.8.1-.5 0-.4-.3-.1-1.5 1.2-3.4 1.5-5.6 1.5h-5.9c-.5 0-.5 0-.4-.5.1-.2.1-.4.2-.6-1.5 1-3.1 1.5-4.7 1.5-1.8 0-3.5-.8-4.2-2.2-2.6 2.4-6.5 2.5-7.7 1.9-.3.9-.6 1.8-1 2.8-.1.2-.1.2-.2 0-1.5-2.5-3.1-5-4.6-7.6-.2-.3-.1-.4.3-.5 2-.9 4.1-1.7 6.1-2.6.3-.1.3-.1.2-.4-.9-3.7.9-6.3 3.2-7.4 2.2-1.1 5-1 6.7.1.2.1.2.2.3-.1.1-.2.1-.3.2-.5.3-.5.2-.5.4-.5z"/><path id="XMLID_1299_" class="st1" d="M85.7 25.1h.9v.1h-.4v.9H86v-.9h-.4l.1-.1zm1 0h.3l.3.8.3-.8h.3v1h-.2v-.8l-.3.8h-.2l-.3-.8v.8h-.2v-1z"/><path id="XMLID_1293_" class="st1" d="M39.1 12.3h3.7c-1 3.1-2.2 6.6-3.2 9.7-.5 1.4 1.4 1.4 1.9 0 1-3.1 2.2-6.5 3.2-9.7h3.8c-1.1 3.2-2.1 6.3-3.1 9.5-.9 2.7-3.3 4.7-6.2 4.7-3 0-4-2-3.1-4.7 1-3.2 2-6.3 3-9.5zM23 22.9c1.7-.7 3.3-1.4 5-2.1l-.6 1.8c.8.5 3.1.8 3.5-.4.3-.7-.3-1.4-.9-2.3-.7-1-1.4-2.3-.8-4 .8-2.4 2.9-3.8 5.1-3.8 1.2 0 2.4.3 3.4 1-.4.9-.9 1.9-1.4 2.8-.8-.6-2.6-1.1-3.2.1-.7 1.3.8 2.6 1.4 3.6.9 1.3.9 2.6.4 3.7-.8 1.8-3.1 3-5.4 3-1.2 0-2.2-.2-3.2-.4-.2.5-.3 1-.5 1.6-1-1.5-1.9-3-2.8-4.6zm26.6-10.6h5.1c3.8 0 3.1 5.3 0 6.7 3.8 2.8.3 7.2-3.9 7.2H45c1.6-4.6 3.1-9.3 4.6-13.9zm2.5 3.1h1c.6 0 1 .5.8 1.2v.1c-.2.6-.9 1.2-1.6 1.2h-.9l.7-2.5zm-1.5 5.3h1c.6 0 1.1.5 1 1.1v.1c-.1.6-.7 1.1-1.4 1.1h-1.3l.7-2.3z"/><path id="XMLID_1284_" class="st2" d="M81 12.3h3.4c.2 1.7.5 3.4.7 5.1 2.4-3.5 4.5-5.5 8.1-5.1.2-.5.3-1 .5-1.5.9 1.4 1.7 2.8 2.6 4.2-1.5.7-3.1 1.3-4.6 2 .2-.6.4-1.1.6-1.7-.9-.7-5.6 2.4-8.1 10.9h-3.9c.7-2 1.3-4.1 2-6.1-.5-2.6-.9-5.2-1.3-7.8zm-5.5 0h4.9l-1.6 13.9h-3.6l.4-2.3h-2.9l-1.2 2.3h-3.3l7.3-13.9zm1.4 3.7l-.9 5.2h-1.9l2.8-5.2zm-18.4-3.7l-1.6 13.9h3.5l4.1-8.8-1.5 8.8h3.4l7.4-13.9h-3.6l-4 8.6 1.4-8.6h-3.1l-4 8.7 1.5-8.7h-3.5z"/><path class="st0" d="M52.1 15.4h1c.6 0 1 .5.8 1.2v.1c-.2.6-.9 1.2-1.6 1.2h-.9l.7-2.5zm-1.5 5.3h1c.6 0 1.1.5 1 1.1v.1c-.1.6-.7 1.1-1.4 1.1h-1.3l.7-2.3zM76.9 16l-.9 5.2h-1.9z"/></svg>