<svg id="Layer_1" xmlns="http://www.w3.org/2000/svg" viewBox="0 0 119.3 38"><style>.st0{fill-rule:evenodd;clip-rule:evenodd;fill:#1b62ae}</style><g id="XMLID_1288_"><path id="XMLID_515_" class="st0" d="M49.9 11.6l-2.2 3.3h-1.8l-1.5 2.2h1.9L41 25s-.4.6-.4 1.5 1.1 1 1.1 1h4l1.3-2.3h-2s-.8-.1-.4-.7l5-7.5h2.3l1.3-2.2h-2.1l2.1-3.3h-3.3v.1z"/><path id="XMLID_514_" class="st0" d="M62.4 27.6l10.3-16h-3.4L59 27.6h3.4z"/><path id="XMLID_513_" class="st0" d="M91.2 27.6l10.3-16h-3.4l-10.3 16h3.4z"/><path id="XMLID_1311_" class="st0" d="M60.9 22.4h-8.2s-.8 1-.9 1.9c0 0 0 .7.9.7H59l-1.7 2.6h-5.2s-3.9 0-3.9-2.3c0 0 0-1.7 2.8-5.7 2.9-4 4.8-4.2 8.1-4.2s4.2 1 4.1 1.9c-.1 1-.2 1.6-2.3 5.1zM54 20.2h5.4s.6-1 .8-1.9c.2-.9-.8-1.1-1.9-1.1-1.1 0-2.8.1-4.3 3z"/><path id="XMLID_1308_" class="st0" d="M89.4 22.4h-8.2s-.8 1-.9 1.9c0 0 0 .7.9.7h6.3l-1.7 2.6h-5.2s-3.9 0-3.9-2.3c0 0 0-1.7 2.8-5.7 2.9-4 4.8-4.2 8.1-4.2s4.2 1 4.1 1.9c-.1 1-.2 1.6-2.3 5.1zm-6.9-2.2H88s.6-1 .8-1.9c.2-.9-.8-1.1-1.9-1.1-1.2 0-2.9.1-4.4 3z"/><path id="XMLID_508_" class="st0" d="M80.6 15.4L78.9 18h-3c-.3 0-2.4.2-4.4 2.4-1.9 2.2-2.1 3.2-2.2 3.9 0 0 0 .7.9.7h5.5L74 27.6h-4.3s-4.2.1-3.9-2.3c0 0 0-1.7 2.8-5.7 0 0 2.6-4.2 8.2-4.2h3.8z"/><path id="XMLID_507_" class="st0" d="M92.5 27.6l.7-1.1h.2l-.2.9.9-.9h.2l-.7 1.1h-.2l.6-.6s0-.1.1-.1c0 0 .1-.1.1-.2l-.9.9h-.2l.2-.9s0 .1-.1.1c0 .1-.1.1-.1.1l-.4.6h-.2v.1z"/><path id="XMLID_506_" class="st0" d="M94.1 27.6l.1-.1h.2l-.1.1h-.2z"/><path id="XMLID_1302_" class="st0" d="M95.6 26.7h.5v.2c0 .1-.1.1-.2.1h-.6l.3-.3zm-.6.9l.3-.5h.5v.1l-.1.2v.1h.2v-.2l.1-.1v-.1l-.1-.1c.1 0 .1-.1.2-.1s.1-.1.1-.2c.1-.1.1-.2 0-.2h-.8l-.7 1.1h.3z"/><path id="XMLID_503_" class="st0" d="M96.1 27.6l.1-.1h.2l-.1.1h-.2z"/><path id="XMLID_502_" class="st0" d="M18.4 24.3h11l-.2-.1h1.1l.1.1H34l-.6.8h-2.3l.1.1-.4.4-.6-.5H17.8l.6-.8z"/><path id="XMLID_501_" class="st0" d="M28.7 23.7l-.4-.4-9.2.1.6-.9h7.8l-.2-.1h1.4l.2.1h6.4l-.6.8h-5.1l.3.4h-1.2z"/><path id="XMLID_500_" class="st0" d="M26.8 21.9l-.4-.4-5.9.1.5-.9h4.3l.1-.1h2.9l-.1.1h8.5l-.6.8H28l.3.4h-1.5z"/><path id="XMLID_499_" class="st0" d="M25.8 20.1l.2-.3h-4.3l.6-.8h4.3l.2-.2h3.1l-.2.2H38l-.6.8H29l-.3.3h-2.9z"/><path id="XMLID_498_" class="st0" d="M27.2 18.3l.2-.3h-4.3l.6-.8H28l.2-.2h3.2l-.1.2h8l-.6.8h-8.1l-.3.3h-3.1z"/><path id="XMLID_497_" class="st0" d="M28.6 16.5l.1-.2h-4.3l.5-.8h4.4l.2-.3h3.4l-.2.3h7.9l-.6.8h-8l-.1.2h-3.3z"/><path id="XMLID_496_" class="st0" d="M29.9 14.8l.2-.4h-4.4l.6-.8h4.4l.1-.1h3.6l-.1.1h7.6l-.6.8h-7.7l-.3.4h-3.4z"/><path id="XMLID_495_" class="st0" d="M31.2 13l.2-.2h-4.5l.6-.8h6.7l.7-1.1h-.1l.4-.5h.6l-.4.5h-.1l-.9 1.1h8.7l-.6.8H35l-.1.2h-3.7z"/></g></svg>