<svg id="Layer_1" xmlns="http://www.w3.org/2000/svg" viewBox="0 0 119.3 38"><style>.st0{fill:#0881c0}</style><path id="XMLID_781_" class="st0" d="M26.2 16.6c-.1-.5-.6-1.5-.7-2.3-.3-1.7.6-2.9 1.5-3.1.9-.3 1.3.2 1.7 1.3.5 1.7.5 3.8.4 6.9-.2 4.2-2.3 9.4-7.6 9.3-4.6-.1-6.6-3-6.8-7.6-.1-2.1.1-4.2.9-7.2.5-1.6.9-2.2 2.3-2.5 1.1-.2 1 1 .8 2.4-.6 3.1-.8 4.6-.6 8.1.2 3.7 1.9 5.2 3.8 5.2 2.8.1 4-2.3 4.6-5.6.2-2.8-.1-4.1-.3-4.9zm59.6 3.7c1.1 0 1.4 1.3 1.1 2.1-.3.8-1.2 1.7-2.6 1.9-.4-.8-.5-4 1.5-4zM65.5 22c0-.9-.5-1.6-1-1.6s-1.6.5-1.6 2.2c0 1.3.5 1.9.7 2.2 1.5-.5 1.9-1.7 1.9-2.8zM49.4 11.5c-.1-.8-.7-1.4-1.6-1.4-1 0-1.9 1-1.8 2.3.1.9.6 1.6 1.6 1.6 1.1 0 1.9-1.3 1.8-2.5zm8.4 3c-.1-1.4-.4-2.1-1.2-2-1 .1-1.5 3.3-1.3 6.7.1 2.2.5 2.6.8 2.5.6 0 1.9-4 1.7-7.2zM92.2 20c-.6 2.7-2.6 6.6-5.5 6.6-.7 0-1.9-.3-1.9-.9 0-.7 4.6-.8 4.6-4.3 0-1.3-1.2-3.1-3-3.1-2.3 0-4.6 2.5-4.6 6.1 0 3.2 2 4.2 3.9 4.2 3.4 0 5.5-2.8 6.6-5.1.5 1.6.8 5.1 2.1 5.1.5 0 .9-.3 1.5-1.7 1.5-3.5 3.1-7.5 5.1-7.5.8 0 .3 1.4 2.2 1.4.9 0 1.5-.7 1.5-1.6 0-1.2-1.1-2.1-2.7-2.1-4.9 0-5.9 7.3-6.7 7.3-1.3 0-.9-5.8-1.8-5.8-.8-.1-1.2.9-1.3 1.4zm-41.4 6.2c.8 0 2.1-.3 3.2-1.9-.6-1.3-1-4-1.1-5-.3-5 1.6-9.7 3.7-9.9 1.6-.1 2.8 1.4 2.9 3.8.4 6.3-1.7 8.9-2.7 11.1.2.9 1.7 2.4 3.1 2.4.5 0 1.1-.3 1.3-.5-.1-.4-.2-.8-.2-1.5 0-3.6 2.3-6.7 4.3-6.7 1.6 0 2.5 2.1 2.5 3.5 0 1.7-1.4 3-3.5 4.3.4.4 1 .6 1.6.6 3 0 4.5-3.6 5.6-6.8.2-.6.6-1.5 1.3-1.5 1.2 0 1.8 8.2 3.8 8.2.9 0 1.6-1.8 1.6-3.2 0-1-.4-1.1-.4-2.6 0-1.7.9-3 2.1-3 .7 0 1 .7 1 1.6 0 3.3-2.4 9.5-5.9 9.5-2.6 0-2.4-4.6-3.4-4.6s-2.5 4.6-7.6 4.6c-.8 0-1.7-.4-2.4-1.2-1.2.8-2.3 1.2-3.5 1.2-1.9 0-2.7-2-3.5-2-.9 0-2 2-5.1 2-2.5 0-2.9-3.3-3.8-3.3-.8 0-2 3.3-3.3 3.3-2.2 0-2.6-5.7-4.6-5.7-1.5 0-6.2 5.8-7.5 5.7-.5-.1-.7-.4-.7-1 .1-.7.7-2.6.9-3.5.4-1.6.8-3.3 1-3.8.2-.6.8-1 1.2-.9.2 0 .3.5.4.8.3 1.3.6 2.6 1 2.6.7 0 3.1-4.6 4.5-4.6 1.7 0 1.9 7.2 4.2 7.2.8 0 1.3-.9 1.9-2.1.1-1.9.6-4.7 2.1-4.7 1.1 0 1.6 2.4.8 4.6.4 2.3 2.1 3 3.2 3"/></svg>