<svg id="Layer_1" xmlns="http://www.w3.org/2000/svg" viewBox="-245 378 119.3 38"><style>.st0{fill:#005bab}</style><g id="XMLID_1322_"><path id="XMLID_1340_" class="st0" d="M-234.4 402.7h-3.6l-5.5-15h3.6l2.9 8.4c.4 1.1.6 2 .9 3 .3-1 .5-1.9.9-2.9l3-8.6h3.5l-5.7 15.1z"/><path id="XMLID_1337_" class="st0" d="M-222 398c0 1.2-.9 2.4-2.2 2.4-1.2 0-2.2-1-2.2-2.3s.8-2.4 2.2-2.4c1.2 0 2.2 1 2.2 2.3zm3 0c0-2.8-2.2-4.9-5.2-4.9-3.1 0-5.3 2.2-5.3 4.9 0 2.9 2.3 5 5.1 5 3.5 0 5.4-2.5 5.4-5z"/><path id="XMLID_1336_" class="st0" d="M-216.7 402.7v-15.9h3v15.9z"/><path id="XMLID_1335_" class="st0" d="M-205.1 402.7l-2.9-4.4v4.4h-3v-15.9h3v10.4l2.9-3.8h3.7l-3.6 4.3 3.8 5z"/><path id="XMLID_1334_" class="st0" d="M-196.6 402.9c-2.1 0-3.2-.7-3.8-2.2l2.5-1c.2.6.7 1.1 1.3 1.1s1-.2 1-.6c0-1.4-4.5-.8-4.5-4 0-1.7 1.4-3.1 3.7-3.1 1.7 0 3 .6 3.6 2.2l-2.4.9c-.3-.7-.8-1-1.3-1-.4 0-.8.2-.8.7 0 1.5 4.5.8 4.5 4.1 0 1.8-1.7 2.9-3.8 2.9z"/><path id="XMLID_1333_" class="st0" d="M-178.3 402.7h-2.8l-1.6-4.6c-.1-.4-.3-.8-.4-1.4-.1.5-.3 1-.4 1.4l-1.5 4.6h-3l-4-9.3h3.1l1.8 4.5c.2.5.4 1.1.5 1.6.1-.6.3-1.1.4-1.6l1.6-4.5h3.1l1.5 4.2c.2.6.4 1.2.5 1.8.2-.7.4-1.3.6-1.8l1.7-4.2h3.1l-4.2 9.3z"/><path id="XMLID_1330_" class="st0" d="M-166.1 398.2c0 1.3-.8 2.4-2.2 2.4s-2.3-1.2-2.3-2.5c0-1.4 1-2.4 2.2-2.4 1.4 0 2.3 1.1 2.3 2.5zm2.9 4.5v-9.2h-3v1.1c-.5-.8-1.6-1.4-2.9-1.4-2.9 0-4.6 2.1-4.6 5.1 0 2.8 1.6 4.8 4.3 4.8 1.4 0 2.4-.5 3.2-1.3v1l3-.1z"/><path id="XMLID_1327_" class="st0" d="M-153.5 397.9c0 1.2-.8 2.3-2.1 2.3-1.4 0-2.2-1-2.2-2.3 0-1.2.9-2.3 2.1-2.3 1.5.1 2.2 1.3 2.2 2.3zm2.9 3.9v-8.4h-3v1.1c-.6-.9-1.6-1.3-2.9-1.3-2.5-.1-4.5 2-4.5 4.8 0 2.5 1.4 4.6 4.4 4.6 1.2 0 2.2-.3 3-1.2v1.3c0 1.5-.7 2.3-2.1 2.3-.9 0-1.8-.6-1.8-1.4h-3c0 2 1.7 3.6 4.6 3.6 1.7 0 3-.4 4-1.4 1-.9 1.3-2 1.3-4z"/><path id="XMLID_1324_" class="st0" d="M-141.7 397h-3.7c.1-1 .8-1.8 1.9-1.8 1.1 0 1.8.9 1.8 1.8zm3 .9c0-3.1-1.9-4.8-4.8-4.8s-4.9 2.2-4.9 5c0 3.3 2.3 4.9 4.8 4.9 2.1 0 3.5-.7 4.6-2.1l-1.9-1.3c-.6.8-1.4 1.2-2.3 1.2-1.3 0-2.2-.9-2.3-2h6.7c.1-.4.1-.7.1-.9z"/><path id="XMLID_1323_" class="st0" d="M-130.2 402.7v-5.1c0-.8-.3-1.8-1.4-1.8-.6 0-1.8.3-1.8 2.1v4.9h-3v-9.3h3v1.2c.4-.6 1.3-1.4 3-1.4 1.2 0 1.9.4 2.4.9.6.6.8 1.3.8 2.7v5.9l-3-.1z"/></g></svg>